<svg xmlns="http://www.w3.org/2000/svg" viewBox="0 0 7.06 11.91"><defs><style>.cls-1{fill:blue;}.cls-2{fill:aqua;}.cls-3{fill:#8a2be2;}.cls-4{fill:#fff;}.cls-5{fill:violet;}</style></defs><title>charge-tier-3 (2)</title><g id="Layer_2" data-name="Layer 2"><g id="Towers_and_enemies_design" data-name="Towers and enemies design"><g id="charge-tier-3"><path class="cls-1" d="M3.6,2.1A1.35,1.35,0,0,1,5,3.46V8.87H2.1V3.46A1.36,1.36,0,0,1,3.46,2.1H3.6M3.6,0H3.46A3.46,3.46,0,0,0,0,3.46V11H7.06V3.46A3.47,3.47,0,0,0,3.6,0Z"/><path class="cls-2" d="M3.6,1.05A1.35,1.35,0,0,1,5,2.4V7.81H2.1V2.4A1.36,1.36,0,0,1,3.46,1.05H3.6m0-1H3.46A2.41,2.41,0,0,0,1.05,2.4V8.87H6V2.4A2.41,2.41,0,0,0,3.6,0Z"/><path class="cls-3" d="M5,6.76H2.1V1.35A1.36,1.36,0,0,1,3.46,0H3.6A1.35,1.35,0,0,1,5,1.35Z"/><rect class="cls-4" x="2.1" y="6.76" width="2.85" height="1.04"/><rect class="cls-5" x="1.58" y="7.28" width="3.9" height="4.11"/><path d="M5,7.8v3.06H2.1V7.8H5m1-1H1.05v5.16H6V6.75Z"/><rect x="1.58" y="6.15" width="3.9" height="2.18"/><path class="cls-2" d="M5,6.67V7.8H2.1V6.67H5m1-1H1.05V8.85H6V5.62Z"/></g></g></g></svg>