<svg xmlns="http://www.w3.org/2000/svg" viewBox="0 0 74.43 70"><defs><style>.cls-1{fill:aqua;}.cls-2{fill:blue;}.cls-3{fill:#3d053d;}.cls-4{fill:#f0f;}.cls-5{fill:lime;}.cls-6{fill:#ff0;}.cls-7{fill:#c1272d;}.cls-8{fill:#f2f2f2;}.cls-9{fill:red;}</style></defs><title>double-toxic-carrier</title><g id="Layer_2" data-name="Layer 2"><g id="Towers_and_enemies_design" data-name="Towers and enemies design"><g id="double-toxic-carrier"><path class="cls-1" d="M5.75,8.62V2.33a1.57,1.57,0,1,1,3.13,0V8.62Z"/><path class="cls-2" d="M7.31,1.52a.81.81,0,0,1,.81.81V7.86H6.5V2.33a.81.81,0,0,1,.81-.81M7.31,0A2.32,2.32,0,0,0,5,2.33V9.38H9.64v-7A2.33,2.33,0,0,0,7.31,0Z"/><path class="cls-1" d="M65.55,8.62V2.33a1.57,1.57,0,1,1,3.14,0V8.62Z"/><path class="cls-2" d="M67.12,1.52a.81.81,0,0,1,.81.81V7.86H66.31V2.33a.81.81,0,0,1,.81-.81m0-1.52a2.33,2.33,0,0,0-2.33,2.33V9.38h4.66v-7A2.33,2.33,0,0,0,67.12,0Z"/><path class="cls-3" d="M47.26,52.58l-10-8.66-10,8.66H15L4.65,43.65V12.25A11.5,11.5,0,0,1,16.13.76H58.3A11.5,11.5,0,0,1,69.79,12.25v31.4L59.43,52.58Z"/><path class="cls-4" d="M58.3,1.52A10.74,10.74,0,0,1,69,12.25V43.3l-9.89,8.52H47.54l-9.33-8-1-.85-1,.85-9.34,8H15.29L5.4,43.3v-31A10.74,10.74,0,0,1,16.13,1.52H58.3M58.3,0H16.13A12.24,12.24,0,0,0,3.89,12.25V44l10.84,9.35H27.45l9.77-8.42L47,53.34H59.71L70.55,44V12.25A12.25,12.25,0,0,0,58.3,0Z"/><polygon points="0.76 63.04 0.76 59.97 4.64 54.37 4.64 42.34 14.16 48.13 16.84 52.61 16.84 57.59 13.36 60.04 13.36 63.04 0.76 63.04"/><path class="cls-4" d="M5.4,43.69l8.21,5,2.47,4.13V57.2l-2.83,2-.65.45v2.64H1.52V60.21L5.13,55l.27-.39V43.69M3.88,41V54.13L0,59.74V63.8H14.12V60.44L17.6,58V52.4l-2.88-4.82L3.88,41Z"/><polygon class="cls-1" points="0.76 63.04 0.76 59.97 4.09 55.15 13.36 60.86 13.36 63.04 0.76 63.04"/><path d="M4.31,56.17l8.29,5.11v1H1.52V60.21l2.79-4m-.43-2L0,59.74V63.8H14.12V60.44L3.88,54.13Z"/><polygon class="cls-1" points="4.64 48.53 4.64 42.34 14.16 48.13 16.84 52.61 16.84 56.58 4.64 48.53"/><path d="M5.4,43.69l8.21,5,2.47,4.13v2.35L5.4,48.12V43.69M3.88,41v7.95L17.6,58V52.4l-2.88-4.82L3.88,41Z"/><rect class="cls-5" x="11.01" y="8.29" width="20.16" height="35.87" rx="0.44"/><path d="M30.41,9.05V43.41H11.77V9.05H30.41m.33-1.52H11.45a1.2,1.2,0,0,0-1.2,1.2v35a1.19,1.19,0,0,0,1.2,1.19H30.74a1.19,1.19,0,0,0,1.19-1.19v-35a1.2,1.2,0,0,0-1.19-1.2Z"/><rect x="10.25" y="31.63" width="21.68" height="1.52"/><rect x="10.25" y="19.3" width="21.68" height="1.52"/><circle class="cls-6" cx="21.09" cy="26.23" r="6.17"/><path d="M21.09,33.15A6.93,6.93,0,1,1,28,26.23,6.93,6.93,0,0,1,21.09,33.15Zm0-12.33a5.41,5.41,0,1,0,5.41,5.41A5.42,5.42,0,0,0,21.09,20.82Z"/><rect class="cls-7" x="11.01" y="36.98" width="20.16" height="4.85"/><path d="M30.41,37.74v3.33H11.77V37.74H30.41m1.52-1.52H10.25v6.37H31.93V36.22Z"/><rect class="cls-2" x="11.01" y="14.46" width="20.16" height="4.85"/><path d="M30.41,15.21v3.33H11.77V15.21H30.41m1.52-1.51H10.25v6.36H31.93V13.7Z"/><rect class="cls-8" x="32.19" y="13.95" width="5.34" height="2.87"/><path d="M36.78,14.71v1.36H33V14.71h3.83m1.51-1.52H31.43v4.39h6.86V13.19Z"/><rect class="cls-8" x="32.19" y="37.36" width="5.34" height="2.87"/><path d="M36.78,38.12v1.36H33V38.12h3.83m1.51-1.52H31.43V41h6.86V36.6Z"/><rect class="cls-8" x="4.64" y="13.95" width="5.34" height="2.87"/><path d="M9.22,14.71v1.36H5.4V14.71H9.22m1.52-1.52H3.88v4.39h6.86V13.19Z"/><rect class="cls-8" x="4.64" y="37.36" width="5.34" height="2.87"/><path d="M9.22,38.12v1.36H5.4V38.12H9.22m1.52-1.52H3.88V41h6.86V36.6Z"/><rect class="cls-9" x="36.57" y="60.5" width="4.85" height="2.55"/><path d="M40.65,61.25v1H37.32v-1h3.33m1.52-1.51H35.81V63.8h6.36V59.74Z"/><rect class="cls-9" x="0.76" y="60.5" width="4.85" height="2.55"/><path d="M4.85,61.25v1H1.52v-1H4.85m1.52-1.51H0V63.8H6.37V59.74Z"/><path class="cls-1" d="M37.17,69.24a1.56,1.56,0,0,1-1.56-1.57V64.56h3.13v3.11A1.57,1.57,0,0,1,37.17,69.24Z"/><path class="cls-2" d="M38,65.32v2.35a.81.81,0,1,1-1.61,0V65.32H38M39.5,63.8H34.85v3.87A2.32,2.32,0,0,0,37.17,70h0a2.33,2.33,0,0,0,2.33-2.33V63.8Z"/><path class="cls-1" d="M33.05,69.24a1.57,1.57,0,0,1-1.57-1.57V64.56h3.14v3.11A1.57,1.57,0,0,1,33.05,69.24Z"/><path class="cls-2" d="M33.86,65.32v2.35a.81.81,0,1,1-1.62,0V65.32h1.62m1.51-1.52H30.72v3.87a2.33,2.33,0,1,0,4.65,0V63.8Z"/><path class="cls-1" d="M9.12,69.24a1.56,1.56,0,0,1-1.56-1.57V64.56h3.13v3.11A1.57,1.57,0,0,1,9.12,69.24Z"/><path class="cls-2" d="M9.93,65.32v2.35a.81.81,0,0,1-1.62,0V65.32H9.93m1.52-1.52H6.8v3.87a2.33,2.33,0,1,0,4.65,0V63.8Z"/><path class="cls-1" d="M5,69.24a1.57,1.57,0,0,1-1.57-1.57V64.56H6.56v3.11A1.56,1.56,0,0,1,5,69.24Z"/><path class="cls-2" d="M5.81,65.32v2.35a.81.81,0,0,1-1.62,0V65.32H5.81M7.32,63.8H2.67v3.87a2.33,2.33,0,1,0,4.65,0V63.8Z"/><g id="Eyes"><path class="cls-1" d="M14.92,6.64a2,2,0,1,1,2-1.95A2,2,0,0,1,14.92,6.64Z"/><path d="M14.92,3.5a1.19,1.19,0,1,1-1.19,1.19A1.19,1.19,0,0,1,14.92,3.5m0-1.52a2.71,2.71,0,1,0,2.72,2.71A2.71,2.71,0,0,0,14.92,2Z"/><path class="cls-1" d="M27.26,6.64a2,2,0,1,1,1.95-1.95A2,2,0,0,1,27.26,6.64Z"/><path d="M27.26,3.5a1.19,1.19,0,1,1-1.2,1.19,1.19,1.19,0,0,1,1.2-1.19m0-1.52A2.71,2.71,0,1,0,30,4.69,2.71,2.71,0,0,0,27.26,2Z"/></g><polygon points="61.06 63.04 61.06 60.04 57.58 57.59 57.58 52.61 60.26 48.13 69.79 42.34 69.79 54.37 73.67 59.97 73.67 63.04 61.06 63.04"/><path class="cls-4" d="M69,43.69V54.6l.27.39,3.61,5.22v2.08H61.82V59.65l-.64-.45-2.84-2V52.82l2.48-4.13,8.21-5M70.55,41,59.71,47.58,56.82,52.4V58l3.48,2.46V63.8H74.43V59.74l-3.88-5.61V41Z"/><polygon class="cls-1" points="61.06 63.04 61.06 60.86 70.33 55.15 73.67 59.97 73.67 63.04 61.06 63.04"/><path d="M70.12,56.17l2.79,4v2.08H61.82v-1l8.3-5.11m.43-2L60.3,60.44V63.8H74.43V59.74l-3.88-5.61Z"/><polygon class="cls-1" points="57.58 52.61 60.26 48.13 69.79 42.34 69.79 48.53 57.58 56.58 57.58 52.61"/><path d="M69,43.69v4.43L58.34,55.17V52.82l2.48-4.13,8.21-5M70.55,41,59.71,47.58,56.82,52.4V58l13.73-9V41Z"/><polygon points="28.81 63.04 28.81 60.04 25.33 57.59 25.33 52.61 28.01 48.13 36.89 42.73 36.89 41.75 37.53 41.75 37.53 42.73 46.42 48.13 49.1 52.61 49.1 57.59 45.62 60.04 45.62 63.04 28.81 63.04"/><path class="cls-4" d="M37.21,43.43l.3.17,8.35,5.09,2.48,4.13V57.2l-2.84,2-.64.45v2.64H29.57V59.65l-.64-.45-2.84-2V52.82l2.47-4.13,8.36-5.09.29-.17M38.29,41H36.13v1.32l-8.68,5.27L24.57,52.4V58l3.48,2.46V63.8H46.37V60.44L49.85,58V52.4L47,47.58l-8.68-5.27V41Z"/><polygon class="cls-1" points="28.81 63.04 28.81 60.86 35.06 57.01 36.53 54.89 37.9 54.89 39.37 57.01 45.62 60.86 45.62 63.04 28.81 63.04"/><path d="M37.5,55.64l1.15,1.67.18.26.27.17,5.76,3.54v1H29.57v-1l5.75-3.54.27-.17.18-.26,1.16-1.67h.57m.79-1.51H36.13l-1.6,2.32-6.48,4V63.8H46.37V60.44l-6.47-4-1.61-2.32Z"/><polygon class="cls-1" points="37.21 48.74 25.33 56.58 25.33 52.61 28.01 48.13 36.89 42.73 36.89 41.75 37.53 41.75 37.53 42.73 46.42 48.13 49.1 52.61 49.1 56.58 37.21 48.74"/><path d="M37.21,43.43l.3.18,8.35,5.08,2.48,4.13v2.35L38.05,48.39l-.84-.55-.83.55L26.09,55.17V52.82l2.47-4.13,8.36-5.08.29-.18M38.29,41H36.13v1.32l-8.68,5.27L24.57,52.4V58l12.64-8.33L49.85,58V52.4L47,47.58l-8.68-5.27V41Z"/><rect class="cls-5" x="43.26" y="8.29" width="20.16" height="35.87" rx="0.44"/><path d="M62.67,9.05V43.41H44V9.05H62.67M63,7.53H43.7a1.2,1.2,0,0,0-1.2,1.2v35a1.19,1.19,0,0,0,1.2,1.19H63a1.19,1.19,0,0,0,1.19-1.19v-35A1.19,1.19,0,0,0,63,7.53Z"/><rect x="42.5" y="31.63" width="21.68" height="1.52"/><rect x="42.5" y="19.3" width="21.68" height="1.52"/><circle class="cls-6" cx="53.34" cy="26.23" r="6.17"/><path d="M53.34,33.15a6.93,6.93,0,1,1,6.93-6.92A6.94,6.94,0,0,1,53.34,33.15Zm0-12.33a5.41,5.41,0,1,0,5.41,5.41A5.41,5.41,0,0,0,53.34,20.82Z"/><rect class="cls-7" x="43.26" y="36.98" width="20.16" height="4.85"/><path d="M62.67,37.74v3.33H44V37.74H62.67m1.51-1.52H42.5v6.37H64.18V36.22Z"/><rect class="cls-2" x="43.26" y="14.46" width="20.16" height="4.85"/><path d="M62.67,15.21v3.33H44V15.21H62.67m1.51-1.51H42.5v6.36H64.18V13.7Z"/><rect class="cls-8" x="64.44" y="13.95" width="5.34" height="2.87"/><path d="M69,14.71v1.36H65.2V14.71H69m1.52-1.52H63.69v4.39h6.86V13.19Z"/><rect class="cls-8" x="64.44" y="37.36" width="5.34" height="2.87"/><path d="M69,38.12v1.36H65.2V38.12H69m1.52-1.52H63.69V41h6.86V36.6Z"/><rect class="cls-8" x="36.89" y="13.95" width="5.34" height="2.87"/><path d="M41.48,14.71v1.36H37.65V14.71h3.83M43,13.19H36.13v4.39H43V13.19Z"/><rect class="cls-8" x="36.89" y="37.36" width="5.34" height="2.87"/><path d="M41.48,38.12v1.36H37.65V38.12h3.83M43,36.6H36.13V41H43V36.6Z"/><rect class="cls-9" x="68.82" y="60.5" width="4.85" height="2.55"/><path d="M72.91,61.25v1H69.58v-1h3.33m1.52-1.51H68.06V63.8h6.37V59.74Z"/><rect class="cls-9" x="34.83" y="60.5" width="4.85" height="2.55"/><path d="M38.92,61.25v1H35.59v-1h3.33m1.51-1.51H34.07V63.8h6.36V59.74Z"/><path class="cls-1" d="M69.43,69.24a1.57,1.57,0,0,1-1.57-1.57V64.56H71v3.11A1.57,1.57,0,0,1,69.43,69.24Z"/><path class="cls-2" d="M70.24,65.32v2.35a.81.81,0,1,1-1.62,0V65.32h1.62m1.51-1.52H67.1v3.87a2.33,2.33,0,1,0,4.65,0V63.8Z"/><path class="cls-1" d="M65.3,69.24a1.57,1.57,0,0,1-1.57-1.57V64.56h3.14v3.11A1.57,1.57,0,0,1,65.3,69.24Z"/><path class="cls-2" d="M66.11,65.32v2.35a.81.81,0,0,1-1.62,0V65.32h1.62m1.52-1.52H63v3.87a2.33,2.33,0,1,0,4.65,0V63.8Z"/><path class="cls-1" d="M41.38,69.24a1.57,1.57,0,0,1-1.57-1.57V64.56h3.13v3.11A1.56,1.56,0,0,1,41.38,69.24Z"/><path class="cls-2" d="M42.19,65.32v2.35a.81.81,0,1,1-1.62,0V65.32h1.62M43.7,63.8H39.05v3.87a2.33,2.33,0,1,0,4.65,0V63.8Z"/><path class="cls-1" d="M37.25,69.24a1.57,1.57,0,0,1-1.57-1.57V64.56h3.14v3.11A1.57,1.57,0,0,1,37.25,69.24Z"/><path class="cls-2" d="M38.06,65.32v2.35a.81.81,0,0,1-1.62,0V65.32h1.62m1.52-1.52H34.92v3.87a2.33,2.33,0,1,0,4.66,0V63.8Z"/><g id="Eyes-2" data-name="Eyes"><circle class="cls-1" cx="47.18" cy="4.69" r="1.95"/><path d="M47.18,3.5A1.19,1.19,0,1,1,46,4.69a1.19,1.19,0,0,1,1.2-1.19m0-1.52a2.71,2.71,0,1,0,2.71,2.71A2.71,2.71,0,0,0,47.18,2Z"/><path class="cls-1" d="M59.51,6.64a2,2,0,1,1,2-1.95A1.95,1.95,0,0,1,59.51,6.64Z"/><path d="M59.51,3.5a1.19,1.19,0,1,1-1.2,1.19,1.19,1.19,0,0,1,1.2-1.19m0-1.52a2.71,2.71,0,1,0,2.71,2.71A2.71,2.71,0,0,0,59.51,2Z"/></g></g></g></g></svg>