<svg xmlns="http://www.w3.org/2000/svg" viewBox="0 0 64.16 80"><defs><style>.cls-1{isolation:isolate;}.cls-2{fill:#db7093;}.cls-3{fill:gray;}.cls-4{fill:#e6e6e6;}.cls-5{fill:orange;}.cls-6{fill:#fff;}.cls-7{mix-blend-mode:multiply;}.cls-8{fill:#f7931e;}.cls-9{fill:#ff8c00;}.cls-10{fill:aqua;}.cls-11{fill:red;}.cls-12{fill:#00008b;}.cls-13{fill:blue;}</style></defs><title>tower-tier-2</title><g class="cls-1"><g id="Layer_2" data-name="Layer 2"><g id="Towers_and_enemies_design" data-name="Towers and enemies design"><g id="tower-tier-2"><g id="foundation"><circle cx="32.08" cy="47.92" r="31.42"/><path class="cls-2" d="M32.08,80A32.08,32.08,0,1,1,64.16,47.92,32.12,32.12,0,0,1,32.08,80Zm0-62.84A30.76,30.76,0,1,0,62.84,47.92,30.79,30.79,0,0,0,32.08,17.16Z"/></g><g id="lights"><g id="left-light"><circle class="cls-3" cx="19.27" cy="26.48" r="2.34"/><path class="cls-4" d="M19.27,29.2A2.72,2.72,0,1,1,22,26.48,2.72,2.72,0,0,1,19.27,29.2Zm0-4.69a2,2,0,1,0,2,2A2,2,0,0,0,19.27,24.51Z"/></g><g id="right-light"><circle class="cls-3" cx="44.66" cy="26.37" r="2.34"/><path class="cls-4" d="M44.66,29.08a2.72,2.72,0,1,1,2.71-2.71A2.72,2.72,0,0,1,44.66,29.08Zm0-4.69a2,2,0,1,0,2,2A2,2,0,0,0,44.66,24.39Z"/></g></g><g id="tower"><g id="barrel"><rect class="cls-5" x="28.12" y="0.66" width="7.93" height="14.71"/><path d="M35.38,1.33V14.71h-6.6V1.33h6.6M36.71,0H27.46V16h9.25V0Z"/><rect class="cls-5" x="26.62" y="14.95" width="10.93" height="15.34"/><path d="M36.88,15.61v14h-9.6v-14h9.6m1.33-1.33H26V31H38.21V14.28Z"/><rect class="cls-6" x="27.28" y="15.61" width="1.5" height="13.28"/><g class="cls-7"><rect class="cls-6" x="29.23" y="1.77" width="0.62" height="26.68"/><polygon class="cls-8" points="30.28 1.33 28.78 1.33 28.78 28.89 30.28 28.89 30.28 1.33 30.28 1.33"/></g></g><g id="base"><path class="cls-9" d="M20.39,67.34H43.78a0,0,0,0,1,0,0v.25a2,2,0,0,1-2,2H22.39a2,2,0,0,1-2-2v-.25A0,0,0,0,1,20.39,67.34Z"/><path class="cls-10" d="M37.79,36.52c6.14,0,11.11,3.23,11.11,7.21V56.48c0,2-2.49,3.62-5.57,3.62H20.83c-3.07,0-5.56-1.62-5.56-3.62V43.73c0-4,5-7.21,11.1-7.21H37.79m0-5.18H26.37C15.86,31.34,7.3,36.9,7.3,43.73V56.48c0,4.85,6.07,8.8,13.53,8.8h22.5c7.46,0,13.53-4,13.53-8.8V43.73c0-6.83-8.55-12.39-19.07-12.39Z"/><path class="cls-11" d="M37.79,35.61c6.14,0,11.11,3.48,11.11,7.77V57.11c0,2.15-2.49,3.9-5.57,3.9H20.83c-3.07,0-5.56-1.75-5.56-3.9V43.38c0-4.29,5-7.77,11.1-7.77H37.79m0-3.72H26.37c-9,0-16.41,5.16-16.41,11.49V57.11c0,4.2,4.88,7.62,10.87,7.62h22.5c6,0,10.88-3.42,10.88-7.62V43.38c0-6.33-7.37-11.49-16.42-11.49Z"/><path d="M37.79,33.79c6.14,0,11.11,4,11.11,8.89V58.37c0,2.46-2.49,4.45-5.57,4.45H20.83c-3.07,0-5.56-2-5.56-4.45V42.68c0-4.91,5-8.89,11.1-8.89H37.79m0-2.83H26.37c-8.07,0-14.64,5.26-14.64,11.72V58.37c0,4,4.08,7.28,9.1,7.28h22.5c5,0,9.11-3.26,9.11-7.28V42.68C52.44,36.22,45.87,31,37.79,31Z"/><path class="cls-5" d="M20.83,67.11a6.24,6.24,0,0,1-6.23-6.22V41.27A11.78,11.78,0,0,1,26.37,29.5H37.79A11.78,11.78,0,0,1,49.56,41.27V60.89a6.23,6.23,0,0,1-6.23,6.22Z"/><path d="M37.79,30.17A11.1,11.1,0,0,1,48.9,41.27V60.89a5.56,5.56,0,0,1-5.57,5.56H20.83a5.56,5.56,0,0,1-5.56-5.56V41.27a11.1,11.1,0,0,1,11.1-11.1H37.79m0-1.33H26.37A12.45,12.45,0,0,0,13.94,41.27V60.89a6.9,6.9,0,0,0,6.89,6.89h22.5a6.9,6.9,0,0,0,6.89-6.89V41.27A12.44,12.44,0,0,0,37.79,28.84Z"/><path class="cls-12" d="M26.64,34.52H37.52A6.51,6.51,0,0,1,44,41V61.15a.94.94,0,0,1-.94.94h-22a.94.94,0,0,1-.94-.94V41a6.51,6.51,0,0,1,6.51-6.51Z"/><path d="M43.09,62.78h-22a1.64,1.64,0,0,1-1.64-1.63V41a7.21,7.21,0,0,1,7.2-7.2H37.52a7.21,7.21,0,0,1,7.2,7.2V61.15A1.63,1.63,0,0,1,43.09,62.78ZM26.64,35.21A5.83,5.83,0,0,0,20.82,41V61.15a.26.26,0,0,0,.26.26h22a.26.26,0,0,0,.25-.26V41a5.83,5.83,0,0,0-5.82-5.82Z"/><rect x="23.96" y="62.6" width="16.23" height="4.52"/><path class="cls-11" d="M25.64,54.42V42.48a2.93,2.93,0,0,1,2.93-2.93h7a2.94,2.94,0,0,1,2.94,2.93V54.42Z"/><path class="cls-11" d="M35.59,41.86a.63.63,0,0,1,.63.62v9.63H28V42.48a.62.62,0,0,1,.62-.62h7m0-4.62h-7a5.25,5.25,0,0,0-5.24,5.24V56.73H40.84V42.48a5.25,5.25,0,0,0-5.25-5.24Z"/><path d="M35.59,41.86a.63.63,0,0,1,.63.62v9.63H28V42.48a.62.62,0,0,1,.62-.62h7m0-3.08h-7a3.7,3.7,0,0,0-3.7,3.7V55.19H39.3V42.48a3.71,3.71,0,0,0-3.71-3.7Z"/><path class="cls-13" d="M35.59,41.86a.63.63,0,0,1,.63.62v9.63H28V42.48a.62.62,0,0,1,.62-.62h7m0-1.54h-7a2.16,2.16,0,0,0-2.16,2.16V53.65H37.76V42.48a2.17,2.17,0,0,0-2.17-2.16Z"/><rect class="cls-6" x="21.5" y="43.46" width="1.72" height="9.7"/></g></g><g id="tier"><path d="M29.47,50.55v-2.1a1.8,1.8,0,0,1,1.24-1.8l1.37-.53c.67-.26.88-.39.88-.76v-.25c0-.51-.47-.55-1.36-.55-.47,0-1.32.06-2,.14a7.52,7.52,0,0,1,0-1.5A15,15,0,0,1,31.92,43c1.81,0,2.94.46,2.94,1.73v.89c0,.78-.3,1.21-1.35,1.6l-1.4.52c-.48.18-.8.32-.8,1V49h3.5a7.82,7.82,0,0,1,0,1.53Z"/></g></g></g></g></g></svg>