<svg xmlns="http://www.w3.org/2000/svg" viewBox="0 0 49 70"><defs><style>.cls-1{fill:#ff0;}.cls-2{fill:red;}.cls-3{fill:#3a0505;}.cls-4{fill:#f0f;}.cls-5{fill:aqua;}.cls-6{fill:lime;}.cls-7{fill:#c1272d;}.cls-8{fill:blue;}.cls-9{fill:#f2f2f2;}</style></defs><title>toxic-spreader</title><g id="Layer_2" data-name="Layer 2"><g id="Towers_and_enemies_design" data-name="Towers and enemies design"><g id="toxic-spreader"><path class="cls-1" d="M38.23,8.62V2.33a1.57,1.57,0,1,1,3.14,0V8.62Z"/><path class="cls-2" d="M39.8,1.52a.81.81,0,0,1,.81.81V7.86H39V2.33a.81.81,0,0,1,.81-.81M39.8,0a2.33,2.33,0,0,0-2.33,2.33V9.38h4.66v-7A2.33,2.33,0,0,0,39.8,0Z"/><path class="cls-1" d="M7.64,8.62V2.33a1.57,1.57,0,0,1,3.14,0V8.62Z"/><path class="cls-2" d="M9.21,1.52a.81.81,0,0,1,.81.81V7.86H8.4V2.33a.81.81,0,0,1,.81-.81M9.21,0A2.32,2.32,0,0,0,6.89,2.33V9.38h4.65v-7A2.33,2.33,0,0,0,9.21,0Z"/><path class="cls-3" d="M16.91,52.58,6.54,43.65V12.25A11.5,11.5,0,0,1,18,.76H31A11.5,11.5,0,0,1,42.47,12.25v31.4L32.11,52.58Z"/><path class="cls-4" d="M31,1.52A10.74,10.74,0,0,1,41.71,12.25V43.3l-9.89,8.52H17.19L7.3,43.3v-31A10.74,10.74,0,0,1,18,1.52H31M31,0H18A12.24,12.24,0,0,0,5.79,12.25V44l10.84,9.35H32.39L43.23,44V12.25A12.25,12.25,0,0,0,31,0Z"/><polygon points="33.74 63.04 33.74 60.05 30.26 57.59 30.26 52.61 32.94 48.13 42.47 42.34 42.47 54.36 46.35 59.97 46.35 63.04 33.74 63.04"/><path class="cls-4" d="M41.71,43.69V54.6L42,55l3.61,5.22v2.08H34.5V59.65l-.64-.45L31,57.2V52.82l2.48-4.13,8.21-5M43.23,41,32.39,47.58,29.5,52.4V58L33,60.44V63.8H47.11V59.74l-3.88-5.61V41Z"/><polygon class="cls-5" points="33.74 63.04 33.74 60.86 43.01 55.15 46.35 59.97 46.35 63.04 33.74 63.04"/><path d="M42.8,56.17l2.79,4v2.08H34.5v-1l8.3-5.11m.43-2L33,60.44V63.8H47.11V59.74l-3.88-5.61Z"/><polygon class="cls-5" points="30.26 52.61 32.94 48.13 42.47 42.34 42.47 48.53 30.26 56.58 30.26 52.61"/><path d="M41.71,43.69v4.43L31,55.17V52.82l2.48-4.13,8.21-5M43.23,41,32.39,47.58,29.5,52.4V58l13.73-9V41Z"/><polygon points="2.66 63.04 2.66 59.97 6.54 54.36 6.54 42.34 16.06 48.13 18.74 52.61 18.74 57.59 15.26 60.05 15.26 63.04 2.66 63.04"/><path class="cls-4" d="M7.29,43.69l8.22,5L18,52.82V57.2l-2.83,2-.65.45v2.64H3.42V60.21L7,55l.26-.39V43.69M5.78,41V54.13L1.9,59.74V63.8H16V60.44L19.5,58V52.4l-2.88-4.82L5.78,41Z"/><polygon class="cls-5" points="2.66 63.04 2.66 59.97 5.99 55.15 15.26 60.86 15.26 63.04 2.66 63.04"/><path d="M6.21,56.17l8.29,5.11v1H3.42V60.21l2.79-4m-.43-2L1.9,59.74V63.8H16V60.44L5.78,54.13Z"/><polygon class="cls-5" points="6.54 48.53 6.54 42.34 16.06 48.13 18.74 52.61 18.74 56.58 6.54 48.53"/><path d="M7.29,43.69l8.22,5L18,52.82v2.35L7.29,48.12V43.69M5.78,41v7.95L19.5,58V52.4l-2.88-4.82L5.78,41Z"/><rect class="cls-6" x="14.43" y="8.29" width="20.16" height="35.87" rx="0.44"/><path d="M33.83,9.05V43.41H15.18V9.05H33.83m.32-1.52H14.86a1.19,1.19,0,0,0-1.19,1.2v35a1.19,1.19,0,0,0,1.19,1.19H34.15a1.19,1.19,0,0,0,1.2-1.19v-35a1.2,1.2,0,0,0-1.2-1.2Z"/><rect x="13.67" y="31.63" width="21.68" height="1.52"/><circle class="cls-1" cx="24.51" cy="26.23" r="6.17"/><path d="M24.51,33.15a6.93,6.93,0,1,1,6.92-6.92A6.94,6.94,0,0,1,24.51,33.15Zm0-12.33a5.41,5.41,0,1,0,5.4,5.41A5.42,5.42,0,0,0,24.51,20.82Z"/><rect class="cls-7" x="14.43" y="36.98" width="20.16" height="4.85"/><path d="M33.83,37.74v3.33H15.18V37.74H33.83m1.52-1.52H13.67v6.37H35.35V36.22Z"/><rect class="cls-8" x="14.43" y="14.46" width="20.16" height="4.85"/><path d="M33.83,15.21v3.33H15.18V15.21H33.83m1.52-1.51H13.67v6.36H35.35V13.7Z"/><rect class="cls-2" x="14.43" y="9.3" width="20.16" height="4.85"/><path d="M33.83,10.06v3.33H15.18V10.06H33.83m1.52-1.52H13.67v6.37H35.35V8.54Z"/><rect class="cls-9" x="36.1" y="13.95" width="6.36" height="2.87"/><path d="M41.71,14.71v1.36H36.86V14.71h4.85m1.52-1.52H35.35v4.39h7.88V13.19Z"/><rect class="cls-9" x="36.1" y="37.36" width="6.36" height="2.87"/><path d="M41.71,38.12v1.36H36.86V38.12h4.85m1.52-1.52H35.35V41h7.88V36.6Z"/><rect class="cls-9" x="6.54" y="13.95" width="6.37" height="2.87"/><path d="M12.15,14.71v1.36H7.29V14.71h4.86m1.52-1.52H5.78v4.39h7.89V13.19Z"/><rect class="cls-9" x="6.54" y="37.36" width="6.37" height="2.87"/><path d="M12.15,38.12v1.36H7.29V38.12h4.86m1.52-1.52H5.78V41h7.89V36.6Z"/><rect class="cls-2" x="41.5" y="60.5" width="4.85" height="2.55"/><path d="M45.59,61.25v1H42.26v-1h3.33m1.52-1.51H40.74V63.8h6.37V59.74Z"/><rect class="cls-2" x="2.66" y="60.5" width="4.85" height="2.55"/><path d="M6.75,61.25v1H3.42v-1H6.75m1.51-1.51H1.9V63.8H8.26V59.74Z"/><path class="cls-1" d="M42.11,69.24a1.57,1.57,0,0,1-1.57-1.57V64.56h3.14v3.11A1.57,1.57,0,0,1,42.11,69.24Z"/><path class="cls-2" d="M42.92,65.32v2.35a.81.81,0,0,1-1.62,0V65.32h1.62m1.51-1.52H39.78v3.87a2.33,2.33,0,1,0,4.65,0V63.8Z"/><path class="cls-1" d="M38,69.24a1.57,1.57,0,0,1-1.57-1.57V64.56h3.14v3.11A1.57,1.57,0,0,1,38,69.24Z"/><path class="cls-2" d="M38.79,65.32v2.35a.81.81,0,1,1-1.62,0V65.32h1.62m1.52-1.52H35.66v3.87A2.32,2.32,0,0,0,38,70h0a2.33,2.33,0,0,0,2.33-2.33V63.8Z"/><path class="cls-1" d="M11,69.24a1.56,1.56,0,0,1-1.56-1.57V64.56h3.13v3.11A1.57,1.57,0,0,1,11,69.24Z"/><path class="cls-2" d="M11.83,65.32v2.35a.81.81,0,0,1-1.62,0V65.32h1.62m1.52-1.52H8.7v3.87A2.32,2.32,0,0,0,11,70h0a2.33,2.33,0,0,0,2.33-2.33V63.8Z"/><path class="cls-1" d="M6.9,69.24a1.57,1.57,0,0,1-1.57-1.57V64.56H8.46v3.11A1.56,1.56,0,0,1,6.9,69.24Z"/><path class="cls-2" d="M7.71,65.32v2.35a.81.81,0,1,1-1.62,0V65.32H7.71M9.22,63.8H4.57v3.87a2.33,2.33,0,1,0,4.65,0V63.8Z"/><rect class="cls-6" x="8.07" y="18.34" width="3.13" height="17.5"/><path d="M10.45,19.1v16H8.83v-16h1.62M12,17.58H7.32v19H12v-19Z"/><rect class="cls-6" x="37.72" y="18.34" width="3.13" height="17.5"/><path d="M40.09,19.1v16H38.48v-16h1.61m1.52-1.52H37v19h4.65v-19Z"/><path class="cls-1" d="M16.38,6.64a2,2,0,1,1,1.95-1.95A1.95,1.95,0,0,1,16.38,6.64Z"/><path d="M16.38,3.5a1.19,1.19,0,1,1-1.2,1.19,1.19,1.19,0,0,1,1.2-1.19m0-1.52a2.71,2.71,0,1,0,2.71,2.71A2.71,2.71,0,0,0,16.38,2Z"/><path class="cls-1" d="M32.63,6.64a2,2,0,1,1,2-1.95A2,2,0,0,1,32.63,6.64Z"/><path d="M32.63,3.5a1.19,1.19,0,1,1-1.19,1.19A1.19,1.19,0,0,1,32.63,3.5m0-1.52a2.71,2.71,0,1,0,2.72,2.71A2.71,2.71,0,0,0,32.63,2Z"/><path d="M.76,31.63V26.34A4.35,4.35,0,0,1,5.1,22h1v9.63Z"/><path class="cls-4" d="M5.38,22.76v8.12H1.52V26.34A3.58,3.58,0,0,1,5.1,22.76h.28M6.9,21.24H5.1A5.1,5.1,0,0,0,0,26.34v6.05H6.9V21.24Z"/><path class="cls-5" d="M2.44,37.83A1.57,1.57,0,0,1,.87,36.26V33.15H4v3.11A1.56,1.56,0,0,1,2.44,37.83Z"/><path class="cls-8" d="M3.25,33.91v2.35a.81.81,0,1,1-1.62,0V33.91H3.25m1.51-1.52H.11v3.87a2.33,2.33,0,1,0,4.65,0V32.39Z"/><path d="M42.87,31.63V22h1a4.35,4.35,0,0,1,4.35,4.34v5.29Z"/><path class="cls-4" d="M43.9,22.76a3.59,3.59,0,0,1,3.59,3.58v4.54H43.62V22.76h.28m0-1.52H42.11V32.39H49V26.34a5.1,5.1,0,0,0-5.1-5.1Z"/><path class="cls-5" d="M46.57,37.83A1.57,1.57,0,0,1,45,36.26V33.15h3.14v3.11A1.57,1.57,0,0,1,46.57,37.83Z"/><path class="cls-8" d="M47.38,33.91v2.35a.81.81,0,0,1-1.62,0V33.91h1.62m1.51-1.52H44.24v3.87a2.33,2.33,0,1,0,4.65,0V32.39Z"/></g></g></g></svg>