<svg xmlns="http://www.w3.org/2000/svg" viewBox="0 0 100 100"><defs><style>.cls-1{isolation:isolate;}.cls-2{fill:#363636;}.cls-3{fill:#8a8a8a;}.cls-4{fill:#e6e6e6;}.cls-5{fill:#f6f6f6;}.cls-6{fill:#999;}.cls-7{fill:#262626;}.cls-8{fill:#fff;}.cls-9{mix-blend-mode:multiply;}.cls-10{fill:#707070;}.cls-11{fill:#575757;}.cls-12{fill:#b3b3b3;}.cls-13{fill:#9e9e9e;}.cls-14{fill:#a6a6a6;}.cls-15{opacity:0.1;}.cls-16{fill:#ccc;}</style></defs><title>cpt-andromeda-unavailable</title><g class="cls-1"><g id="Layer_2" data-name="Layer 2"><g id="Towers"><g id="cpt-andromeda-unavailable"><g id="tower-tier-3"><g id="foundation"><circle class="cls-2" cx="49.86" cy="50.14" r="29.99"/><path class="cls-3" d="M49.86,80.75A30.62,30.62,0,1,1,80.48,50.14,30.65,30.65,0,0,1,49.86,80.75Zm0-60A29.36,29.36,0,1,0,79.21,50.14,29.39,29.39,0,0,0,49.86,20.78Z"/></g><g id="lights"><g id="left-light"><circle class="cls-4" cx="35.95" cy="29.68" r="2.24"/><path class="cls-5" d="M36,32.27a2.59,2.59,0,1,1,2.59-2.59A2.59,2.59,0,0,1,36,32.27Zm0-4.48a1.89,1.89,0,1,0,1.88,1.89A1.89,1.89,0,0,0,36,27.79Z"/></g><g id="right-light"><circle class="cls-4" cx="63.56" cy="29.57" r="2.24"/><path class="cls-5" d="M63.56,32.15a2.59,2.59,0,1,1,2.59-2.58A2.59,2.59,0,0,1,63.56,32.15Zm0-4.47a1.89,1.89,0,1,0,1.88,1.89A1.89,1.89,0,0,0,63.56,27.68Z"/></g></g><g id="tower"><g id="double-barrel"><g id="left-barrel"><rect class="cls-6" x="41.64" y="1.37" width="6.46" height="16.11"/><path class="cls-7" d="M47.49,2V16.86H42.25V2h5.24M48.72.75H41V18.09h7.69V.75Z"/><rect class="cls-6" x="40.26" y="17.09" width="9.22" height="16.67"/><path class="cls-7" d="M48.87,17.7V33.15h-8V17.7h8m1.22-1.22H39.65V34.37H50.09V16.48Z"/><rect class="cls-8" x="40.88" y="17.7" width="1.38" height="14.77"/><g class="cls-9"><rect class="cls-10" x="42.25" y="1.98" width="1.38" height="30.5"/></g></g><g id="right-barrel"><rect class="cls-6" x="51.38" y="1.37" width="6.46" height="16.11"/><path class="cls-7" d="M57.24,2V16.86H52V2h5.24M58.46.75H50.77V18.09h7.69V.75Z"/><rect class="cls-6" x="50.01" y="17.09" width="9.22" height="16.67"/><path class="cls-7" d="M58.61,17.7V33.15h-8V17.7h8m1.23-1.22H49.4V34.37H59.84V16.48Z"/><rect class="cls-8" x="50.62" y="17.7" width="1.38" height="14.77"/><g class="cls-9"><rect class="cls-10" x="52" y="1.98" width="1.38" height="30.5"/></g></g></g><g id="base"><path class="cls-7" d="M37.52,71H62.14a0,0,0,0,1,0,0v1.85A1.15,1.15,0,0,1,61,74H38.67a1.15,1.15,0,0,1-1.15-1.15V71a0,0,0,0,1,0,0Z"/><path class="cls-11" d="M37.52,68.67H62.14a0,0,0,0,1,0,0v1.85A1.15,1.15,0,0,1,61,71.67H38.67a1.15,1.15,0,0,1-1.15-1.15V68.67a0,0,0,0,1,0,0Z"/><path class="cls-7" d="M56.94,40.12c5.85,0,10.6,2.85,10.6,6.36V57.71c0,1.76-2.38,3.19-5.31,3.19H37.43c-2.93,0-5.31-1.43-5.31-3.19V46.48c0-3.51,4.75-6.36,10.6-6.36H56.94m0-5.07H42.72c-10.5,0-19,5.13-19,11.43V57.71c0,4.55,6.17,8.25,13.75,8.25h24.8C69.81,66,76,62.26,76,57.71V46.48c0-6.3-8.54-11.43-19-11.43Z"/><path class="cls-12" d="M56.94,39.25c5.85,0,10.6,3.09,10.6,6.89V58.31c0,1.91-2.38,3.45-5.31,3.45H37.43c-2.93,0-5.31-1.54-5.31-3.45V46.14c0-3.8,4.75-6.89,10.6-6.89H56.94m0-4.39H42.72c-9.57,0-17.35,5.06-17.35,11.28V58.31c0,4.33,5.41,7.85,12.06,7.85h24.8c6.65,0,12.06-3.52,12.06-7.85V46.14c0-6.22-7.78-11.28-17.35-11.28Z"/><path class="cls-3" d="M56.94,38.39c5.85,0,10.6,3.32,10.6,7.42v13.1c0,2.05-2.38,3.72-5.31,3.72H37.43c-2.93,0-5.31-1.67-5.31-3.72V45.81c0-4.1,4.75-7.42,10.6-7.42H56.94m0-3.55H42.72c-8.64,0-15.66,4.92-15.66,11v13.1c0,4,4.65,7.27,10.37,7.27h24.8c5.72,0,10.38-3.26,10.38-7.27V45.81c0-6.05-7-11-15.67-11Z"/><path class="cls-7" d="M56.94,36.65c5.85,0,10.6,3.8,10.6,8.48v15c0,2.35-2.38,4.25-5.31,4.25H37.43c-2.93,0-5.31-1.9-5.31-4.25v-15c0-4.68,4.75-8.48,10.6-8.48H56.94m0-2.7H42.72c-7.7,0-14,5-14,11.18v15c0,3.83,3.9,7,8.69,7h24.8c4.79,0,8.69-3.12,8.69-7v-15C70.92,39,64.65,34,56.94,34Z"/><path class="cls-6" d="M37.43,68.46a6,6,0,0,1-5.94-5.95V43.79A11.25,11.25,0,0,1,42.72,32.56H56.94A11.25,11.25,0,0,1,68.17,43.79V62.51a6,6,0,0,1-5.94,5.95Z"/><path class="cls-7" d="M56.94,33.19a10.61,10.61,0,0,1,10.6,10.6V62.51a5.31,5.31,0,0,1-5.31,5.31H37.43a5.31,5.31,0,0,1-5.31-5.31V43.79a10.61,10.61,0,0,1,10.6-10.6H56.94m0-1.27H42.72A11.88,11.88,0,0,0,30.86,43.79V62.51a6.58,6.58,0,0,0,6.57,6.58h24.8a6.58,6.58,0,0,0,6.57-6.58V43.79A11.88,11.88,0,0,0,56.94,31.92Z"/><path class="cls-13" d="M43.46,37.35H56.2a6.21,6.21,0,0,1,6.21,6.21v19.2a.9.9,0,0,1-.9.9H38.15a.9.9,0,0,1-.9-.9V43.56a6.21,6.21,0,0,1,6.21-6.21Z"/><path class="cls-7" d="M61.51,64.32H38.15a1.56,1.56,0,0,1-1.56-1.56V43.56a6.88,6.88,0,0,1,6.87-6.87H56.2a6.88,6.88,0,0,1,6.87,6.87v19.2A1.56,1.56,0,0,1,61.51,64.32ZM43.46,38a5.56,5.56,0,0,0-5.55,5.55v19.2a.25.25,0,0,0,.24.25H61.51a.25.25,0,0,0,.24-.25V43.56A5.56,5.56,0,0,0,56.2,38Z"/><rect class="cls-8" x="39.27" y="45.94" width="1.81" height="9.26"/><rect class="cls-7" x="41.28" y="64.15" width="17.09" height="4.31"/><path class="cls-3" d="M43.27,56.34V45a2.8,2.8,0,0,1,2.8-2.8h7.52a2.8,2.8,0,0,1,2.8,2.8V56.34Z"/><path class="cls-14" d="M53.59,44.35a.6.6,0,0,1,.6.6v9.19H45.48V45a.59.59,0,0,1,.59-.6h7.52m0-4.41H46.07a5,5,0,0,0-5,5V58.54H58.59V45a5,5,0,0,0-5-5Z"/><path class="cls-7" d="M53.59,44.35a.6.6,0,0,1,.6.6v9.19H45.48V45a.59.59,0,0,1,.59-.6h7.52m0-2.94H46.07A3.54,3.54,0,0,0,42.54,45V57.07H57.12V45a3.54,3.54,0,0,0-3.53-3.54Z"/><path class="cls-11" d="M53.59,44.35a.6.6,0,0,1,.6.6v9.19H45.48V45a.59.59,0,0,1,.59-.6h7.52m0-1.47H46.07A2.07,2.07,0,0,0,44,45V55.61H55.65V45a2.07,2.07,0,0,0-2.06-2.07Z"/></g></g><g id="tier"><path class="cls-7" d="M52.56,51.07c0,1.22-1.18,1.7-3,1.7a11.88,11.88,0,0,1-2.11-.16,8.65,8.65,0,0,1,0-1.44,14.74,14.74,0,0,0,1.92.13c.8,0,1.37,0,1.37-.57v-.35c0-.48-.58-.59-1.34-.59h-1.2a6.65,6.65,0,0,1,0-1.41h1.2c.64,0,1.23-.08,1.23-.52v-.39c0-.49-.49-.54-1.26-.54-.43,0-1.24.06-1.9.13a8.54,8.54,0,0,1,0-1.43,12.38,12.38,0,0,1,2.09-.16c1.75,0,2.86.44,2.86,1.74v.52a1.29,1.29,0,0,1-1.05,1.34,1.42,1.42,0,0,1,1.15,1.49Z"/></g></g><g class="cls-15"><path class="cls-16" d="M50,1A49,49,0,1,1,1,50,49.05,49.05,0,0,1,50,1m0-1a50,50,0,1,0,50,50A50,50,0,0,0,50,0Z"/></g></g></g></g></g></svg>