<svg xmlns="http://www.w3.org/2000/svg" viewBox="0 0 100 100"><defs><style>.cls-1{isolation:isolate;}.cls-2{fill:#000086;}.cls-3{fill:#b93dd5;}.cls-4{fill:red;}.cls-5{fill:#e4e4e4;}.cls-6{fill:#ff0;}.cls-7{fill:#8fffff;}.cls-8{fill:#fff;}.cls-9{mix-blend-mode:multiply;}.cls-10{fill:#599dac;}.cls-11{fill:#e48a20;}.cls-12{fill:#0000f9;}.cls-13{fill:#da0100;}.cls-14{opacity:0.1;}.cls-15{fill:#da00f9;}</style></defs><title>galactic-marine-frame-2</title><g class="cls-1"><g id="Layer_2" data-name="Layer 2"><g id="Towers"><g id="galactic-marine-frame-2"><g id="tower-tier-1-shot-frame-2"><g id="foundation"><circle class="cls-2" cx="49.93" cy="49.93" r="31.07"/><path class="cls-3" d="M49.93,81.66A31.73,31.73,0,1,1,81.66,49.93,31.76,31.76,0,0,1,49.93,81.66Zm0-62.15A30.42,30.42,0,1,0,80.35,49.93,30.46,30.46,0,0,0,49.93,19.51Z"/></g><g id="lights"><g id="left-light"><circle class="cls-4" cx="37.26" cy="28.73" r="2.32"/><path class="cls-5" d="M37.26,31.42a2.69,2.69,0,1,1,2.68-2.69A2.69,2.69,0,0,1,37.26,31.42Zm0-4.64a2,2,0,1,0,2,1.95A2,2,0,0,0,37.26,26.78Z"/></g><g id="right-light"><circle class="cls-6" cx="62.37" cy="28.62" r="2.32"/><path class="cls-5" d="M62.37,31.3a2.69,2.69,0,1,1,2.68-2.68A2.69,2.69,0,0,1,62.37,31.3Zm0-4.64a2,2,0,1,0,1.95,2A2,2,0,0,0,62.37,26.66Z"/></g></g><g id="tower"><g id="barrel"><rect class="cls-7" x="46.88" y="14.32" width="6.09" height="8.42"/><path d="M52.32,15v7.1H47.54V15h4.78m1.31-1.32h-7.4V23.4h7.4V13.66Z"/><rect class="cls-7" x="45.4" y="22.32" width="9.06" height="10.17"/><path d="M53.8,23v8.85H46.06V23H53.8m1.31-1.32H44.74V33.15H55.11V21.66Z"/><rect class="cls-8" x="46.06" y="22.98" width="1.48" height="8.14"/><g class="cls-9"><rect class="cls-8" x="47.98" y="15.41" width="0.61" height="15.27"/><polygon class="cls-10" points="49.02 14.97 47.54 14.97 47.54 31.12 49.02 31.12 49.02 14.97 49.02 14.97"/></g></g><g id="base"><path class="cls-11" d="M38.36,69.14H61.49a0,0,0,0,1,0,0v.25a2,2,0,0,1-2,2H40.35a2,2,0,0,1-2-2v-.25a0,0,0,0,1,0,0Z"/><path d="M55.58,38.65c6.06,0,11,3.2,11,7.14V58.4c0,2-2.46,3.58-5.5,3.58H38.8c-3,0-5.5-1.6-5.5-3.58V45.79c0-3.94,4.91-7.14,11-7.14h11.3m0-5.12H44.28c-10.4,0-18.86,5.5-18.86,12.26V58.4c0,4.8,6,8.7,13.38,8.7H61.06c7.37,0,13.38-3.9,13.38-8.7V45.79C74.44,39,66,33.53,55.58,33.53Z"/><path class="cls-11" d="M55.58,37.76c6.06,0,11,3.44,11,7.68V59c0,2.12-2.46,3.85-5.5,3.85H38.8c-3,0-5.5-1.73-5.5-3.85V45.44c0-4.24,4.91-7.68,11-7.68h11.3m0-3.68H44.28c-9,0-16.23,5.1-16.23,11.36V59c0,4.15,4.82,7.52,10.75,7.52H61.06c5.93,0,10.75-3.37,10.75-7.52V45.44c0-6.26-7.28-11.36-16.23-11.36Z"/><path d="M55.58,36c6.06,0,11,3.94,11,8.79V60.27c0,2.43-2.46,4.4-5.5,4.4H38.8c-3,0-5.5-2-5.5-4.4V44.75c0-4.85,4.91-8.79,11-8.79h11.3m0-2.8H44.28c-8,0-14.48,5.2-14.48,11.59V60.27c0,4,4,7.2,9,7.2H61.06c5,0,9-3.23,9-7.2V44.75c0-6.39-6.5-11.59-14.48-11.59Z"/><path class="cls-7" d="M38.8,68.92a6.17,6.17,0,0,1-6.16-6.16V43.36A11.65,11.65,0,0,1,44.28,31.72h11.3A11.66,11.66,0,0,1,67.22,43.36v19.4a6.18,6.18,0,0,1-6.16,6.16Z"/><path d="M55.58,32.37a11,11,0,0,1,11,11v19.4a5.5,5.5,0,0,1-5.5,5.5H38.8a5.5,5.5,0,0,1-5.5-5.5V43.36a11,11,0,0,1,11-11h11.3m0-1.31H44.28A12.32,12.32,0,0,0,32,43.36v19.4a6.82,6.82,0,0,0,6.82,6.81H61.06a6.82,6.82,0,0,0,6.81-6.81V43.36a12.31,12.31,0,0,0-12.29-12.3Z"/><path class="cls-12" d="M44.55,36.68H55.31a6.44,6.44,0,0,1,6.44,6.44V63a.93.93,0,0,1-.93.93H39a.93.93,0,0,1-.93-.93V43.12a6.44,6.44,0,0,1,6.44-6.44Z"/><path d="M60.81,64.63H39.05A1.61,1.61,0,0,1,37.43,63V43.12A7.12,7.12,0,0,1,44.55,36H55.31a7.13,7.13,0,0,1,7.12,7.12V63A1.62,1.62,0,0,1,60.81,64.63ZM44.55,37.36a5.77,5.77,0,0,0-5.76,5.76V63a.26.26,0,0,0,.26.25H60.81a.25.25,0,0,0,.25-.25V43.12a5.77,5.77,0,0,0-5.75-5.76Z"/><rect x="46.59" y="57.45" width="6.68" height="4.47"/><rect x="41.9" y="64.45" width="16.06" height="4.47"/><path class="cls-7" d="M43.55,56.36V44.56a2.92,2.92,0,0,1,2.91-2.91H53.4a2.91,2.91,0,0,1,2.9,2.91v11.8Z"/><path class="cls-13" d="M53.4,43.94a.62.62,0,0,1,.62.62v9.52H45.84V44.56a.62.62,0,0,1,.62-.62H53.4m0-4.57H46.46a5.2,5.2,0,0,0-5.19,5.19V58.65H58.59V44.56a5.2,5.2,0,0,0-5.19-5.19Z"/><path d="M53.4,43.94a.62.62,0,0,1,.62.62v9.52H45.84V44.56a.62.62,0,0,1,.62-.62H53.4m0-3H46.46a3.68,3.68,0,0,0-3.67,3.67V57.12H57.06V44.56a3.67,3.67,0,0,0-3.66-3.67Z"/><path class="cls-12" d="M53.4,43.94a.62.62,0,0,1,.62.62v9.52H45.84V44.56a.62.62,0,0,1,.62-.62H53.4m0-1.53H46.46a2.15,2.15,0,0,0-2.14,2.15v11H55.54v-11a2.15,2.15,0,0,0-2.14-2.15Z"/><rect class="cls-8" x="39.47" y="45.52" width="1.7" height="9.59"/></g></g><g id="tier"><path d="M47.76,52.53a6.36,6.36,0,0,1,0-1.51h1.52V46.75H47.72a7.62,7.62,0,0,1,0-1.51h3.43V51h1.52a6.36,6.36,0,0,1,0,1.51Z"/></g></g><g class="cls-14"><path class="cls-15" d="M50,1A49,49,0,1,1,1,50,49.05,49.05,0,0,1,50,1m0-1a50,50,0,1,0,50,50A50,50,0,0,0,50,0Z"/></g></g></g></g></g></svg>