<svg xmlns="http://www.w3.org/2000/svg" viewBox="0 0 100 100"><defs><style>.cls-1{isolation:isolate;}.cls-2{fill:#000086;}.cls-3{fill:#b93dd5;}.cls-4{fill:#f15a24;}.cls-5{fill:#e4e4e4;}.cls-6{fill:#8fffff;}.cls-7{fill:#fff;}.cls-8{mix-blend-mode:multiply;}.cls-9{fill:#599dac;}.cls-10{fill:#e48a20;}.cls-11{fill:#0000f9;}.cls-12{fill:#da0100;}.cls-13{opacity:0.1;}.cls-14{fill:#da00f9;}</style></defs><title>galactic-marine-frame-3</title><g class="cls-1"><g id="Layer_2" data-name="Layer 2"><g id="Towers"><g id="galactic-marine-frame-3"><g id="tower-tier-1-shot-frame-3"><g id="foundation"><circle class="cls-2" cx="50" cy="49.99" r="31.07"/><path class="cls-3" d="M50,81.72A31.73,31.73,0,1,1,81.73,50,31.76,31.76,0,0,1,50,81.72Zm0-62.14A30.42,30.42,0,1,0,80.42,50,30.45,30.45,0,0,0,50,19.58Z"/></g><g id="lights"><g id="left-light"><circle class="cls-4" cx="37.33" cy="28.79" r="2.32"/><path class="cls-5" d="M37.33,31.48A2.69,2.69,0,1,1,40,28.79,2.69,2.69,0,0,1,37.33,31.48Zm0-4.64a2,2,0,1,0,2,1.95A2,2,0,0,0,37.33,26.84Z"/></g><g id="right-light"><circle class="cls-4" cx="62.44" cy="28.68" r="2.32"/><path class="cls-5" d="M62.44,31.36a2.69,2.69,0,1,1,2.68-2.68A2.68,2.68,0,0,1,62.44,31.36Zm0-4.64a2,2,0,1,0,2,2A2,2,0,0,0,62.44,26.72Z"/></g></g><g id="tower"><g id="barrel"><rect class="cls-6" x="46.96" y="9.38" width="6.09" height="11.42"/><path d="M52.39,10v10.1H47.61V10h4.78M53.7,8.72H46.3V21.46h7.4V8.72Z"/><rect class="cls-6" x="45.47" y="20.38" width="9.06" height="12.17"/><path d="M53.87,21V31.89H46.13V21h7.74m1.31-1.31H44.82V33.21H55.18V19.73Z"/><rect class="cls-7" x="46.13" y="21.04" width="1.48" height="10.14"/><g class="cls-8"><rect class="cls-7" x="48.05" y="10.47" width="0.61" height="20.27"/><polygon class="cls-9" points="49.1 10.04 47.61 10.04 47.61 31.18 49.1 31.18 49.1 10.04 49.1 10.04"/></g></g><g id="base"><path class="cls-10" d="M38.43,69.2H61.57a0,0,0,0,1,0,0v.25a2,2,0,0,1-2,2H40.42a2,2,0,0,1-2-2V69.2A0,0,0,0,1,38.43,69.2Z"/><path d="M55.65,38.71c6.06,0,11,3.2,11,7.14V58.46c0,2-2.46,3.58-5.5,3.58H38.87c-3,0-5.5-1.6-5.5-3.58V45.85c0-3.94,4.92-7.14,11-7.14h11.3m0-5.12H44.35c-10.4,0-18.86,5.5-18.86,12.26V58.46c0,4.8,6,8.7,13.38,8.7H61.13c7.38,0,13.38-3.9,13.38-8.7V45.85c0-6.76-8.46-12.26-18.86-12.26Z"/><path class="cls-10" d="M55.65,37.82c6.06,0,11,3.44,11,7.69V59.09c0,2.12-2.46,3.85-5.5,3.85H38.87c-3,0-5.5-1.73-5.5-3.85V45.51c0-4.25,4.92-7.69,11-7.69h11.3m0-3.68H44.35c-9,0-16.23,5.1-16.23,11.37V59.09c0,4.15,4.82,7.53,10.75,7.53H61.13c5.93,0,10.75-3.38,10.75-7.53V45.51c0-6.27-7.28-11.37-16.23-11.37Z"/><path d="M55.65,36c6.06,0,11,3.94,11,8.79V60.33c0,2.43-2.46,4.4-5.5,4.4H38.87c-3,0-5.5-2-5.5-4.4V44.81c0-4.85,4.92-8.79,11-8.79h11.3m0-2.8H44.35c-8,0-14.48,5.2-14.48,11.59V60.33c0,4,4,7.21,9,7.21H61.13c5,0,9-3.24,9-7.21V44.81c0-6.39-6.5-11.59-14.48-11.59Z"/><path class="cls-6" d="M38.87,69a6.17,6.17,0,0,1-6.16-6.16V43.42A11.65,11.65,0,0,1,44.35,31.78h11.3A11.65,11.65,0,0,1,67.29,43.42v19.4A6.17,6.17,0,0,1,61.13,69Z"/><path d="M55.65,32.43a11,11,0,0,1,11,11v19.4a5.5,5.5,0,0,1-5.5,5.5H38.87a5.5,5.5,0,0,1-5.5-5.5V43.42a11,11,0,0,1,11-11h11.3m0-1.31H44.35a12.31,12.31,0,0,0-12.29,12.3v19.4a6.82,6.82,0,0,0,6.81,6.82H61.13a6.82,6.82,0,0,0,6.81-6.82V43.42a12.31,12.31,0,0,0-12.29-12.3Z"/><path class="cls-11" d="M44.62,36.74H55.38a6.44,6.44,0,0,1,6.44,6.44v19.9a.93.93,0,0,1-.93.93H39.12a.93.93,0,0,1-.93-.93V43.18A6.44,6.44,0,0,1,44.62,36.74Z"/><path d="M60.88,64.7H39.12a1.63,1.63,0,0,1-1.62-1.62V43.18a7.14,7.14,0,0,1,7.12-7.12H55.38a7.14,7.14,0,0,1,7.12,7.12v19.9A1.63,1.63,0,0,1,60.88,64.7ZM44.62,37.43a5.77,5.77,0,0,0-5.76,5.75v19.9a.26.26,0,0,0,.26.25H60.88a.26.26,0,0,0,.26-.25V43.18a5.77,5.77,0,0,0-5.76-5.75Z"/><rect x="46.66" y="57.51" width="6.68" height="4.47"/><rect x="41.97" y="64.51" width="16.06" height="4.47"/><path class="cls-6" d="M43.63,56.42V44.62a2.91,2.91,0,0,1,2.9-2.91h6.94a2.91,2.91,0,0,1,2.9,2.91v11.8Z"/><path class="cls-12" d="M53.47,44a.62.62,0,0,1,.62.62v9.52H45.91V44.62a.62.62,0,0,1,.62-.62h6.94m0-4.57H46.53a5.2,5.2,0,0,0-5.19,5.19V58.71H58.66V44.62a5.2,5.2,0,0,0-5.19-5.19Z"/><path d="M53.47,44a.62.62,0,0,1,.62.62v9.52H45.91V44.62a.62.62,0,0,1,.62-.62h6.94m0-3H46.53a3.68,3.68,0,0,0-3.67,3.67V57.18H57.14V44.62A3.68,3.68,0,0,0,53.47,41Z"/><path class="cls-11" d="M53.47,44a.62.62,0,0,1,.62.62v9.52H45.91V44.62a.62.62,0,0,1,.62-.62h6.94m0-1.52H46.53a2.14,2.14,0,0,0-2.14,2.14v11H55.61v-11a2.14,2.14,0,0,0-2.14-2.14Z"/><rect class="cls-7" x="39.54" y="45.58" width="1.7" height="9.59"/></g></g><g id="tier"><path d="M47.83,52.6a6.44,6.44,0,0,1,0-1.52h1.52V46.81H47.8a6.36,6.36,0,0,1,0-1.51h3.42v5.78h1.53a7.72,7.72,0,0,1,0,1.52Z"/></g></g><g class="cls-13"><path class="cls-14" d="M50,1A49,49,0,1,1,1,50,49.05,49.05,0,0,1,50,1m0-1a50,50,0,1,0,50,50A50,50,0,0,0,50,0Z"/></g></g></g></g></g></svg>