<svg xmlns="http://www.w3.org/2000/svg" viewBox="0 0 100 100"><defs><style>.cls-1{isolation:isolate;}.cls-2{fill:#666;}.cls-3{fill:#999;}.cls-4{fill:#e6e6e6;}.cls-5{fill:#f2f2f2;}.cls-6{fill:#bababa;}.cls-7{fill:#212121;}.cls-8{fill:#fff;}.cls-9{mix-blend-mode:multiply;}.cls-10{fill:#4d4d4d;}.cls-11{fill:#b8b8b8;}.cls-12{fill:gray;}.cls-13{fill:#636363;}.cls-14{opacity:0.1;}.cls-15{fill:#b3b3b3;}</style></defs><title>galactic-marine-unavailable</title><g class="cls-1"><g id="Layer_2" data-name="Layer 2"><g id="Towers"><g id="galactic-marine-unavailable"><g id="tower-tier-1"><g id="foundation"><circle class="cls-2" cx="50" cy="49.92" r="31.07"/><path class="cls-3" d="M50,81.65A31.73,31.73,0,1,1,81.73,49.92,31.77,31.77,0,0,1,50,81.65ZM50,19.5A30.42,30.42,0,1,0,80.42,49.92,30.45,30.45,0,0,0,50,19.5Z"/></g><g id="lights"><g id="left-light"><circle class="cls-4" cx="37.33" cy="28.72" r="2.32"/><path class="cls-5" d="M37.33,31.4A2.69,2.69,0,1,1,40,28.72,2.68,2.68,0,0,1,37.33,31.4Zm0-4.64a2,2,0,1,0,2,2A2,2,0,0,0,37.33,26.76Z"/></g><g id="right-light"><circle class="cls-4" cx="62.44" cy="28.6" r="2.32"/><path class="cls-5" d="M62.44,31.28a2.68,2.68,0,1,1,2.68-2.68A2.68,2.68,0,0,1,62.44,31.28Zm0-4.63a2,2,0,1,0,2,2A1.95,1.95,0,0,0,62.44,26.65Z"/></g></g><g id="tower"><g id="barrel"><rect class="cls-6" x="46.96" y="2.3" width="6.09" height="15.42"/><path class="cls-7" d="M52.39,3V17.07H47.61V3h4.78M53.7,1.65H46.3V18.38h7.4V1.65Z"/><rect class="cls-6" x="45.47" y="17.3" width="9.06" height="15.17"/><path class="cls-7" d="M53.87,18V31.82H46.13V18h7.74m1.31-1.31H44.82V33.13H55.18V16.65Z"/><rect class="cls-8" x="46.13" y="17.96" width="1.48" height="13.14"/><g class="cls-9"><rect class="cls-8" x="48.05" y="3.4" width="0.61" height="27.27"/><polygon class="cls-10" points="49.1 2.96 47.61 2.96 47.61 31.1 49.1 31.1 49.1 2.96 49.1 2.96"/></g></g><g id="base"><path class="cls-11" d="M38.43,69.12H61.57a0,0,0,0,1,0,0v.25a2,2,0,0,1-2,2H40.42a2,2,0,0,1-2-2v-.25a0,0,0,0,1,0,0Z"/><path class="cls-7" d="M55.65,38.64c6.06,0,11,3.19,11,7.14V58.39c0,2-2.46,3.58-5.5,3.58H38.87c-3,0-5.5-1.61-5.5-3.58V45.78c0-4,4.92-7.14,11-7.14h11.3m0-5.12H44.35C34,33.52,25.49,39,25.49,45.78V58.39c0,4.79,6,8.7,13.38,8.7H61.13c7.38,0,13.38-3.91,13.38-8.7V45.78c0-6.76-8.46-12.26-18.86-12.26Z"/><path class="cls-11" d="M55.65,37.74c6.06,0,11,3.44,11,7.69V59c0,2.13-2.46,3.85-5.5,3.85H38.87c-3,0-5.5-1.72-5.5-3.85V45.43c0-4.25,4.92-7.69,11-7.69h11.3m0-3.68H44.35c-9,0-16.23,5.1-16.23,11.37V59c0,4.15,4.82,7.53,10.75,7.53H61.13c5.93,0,10.75-3.38,10.75-7.53V45.43c0-6.27-7.28-11.37-16.23-11.37Z"/><path class="cls-7" d="M55.65,36c6.06,0,11,3.93,11,8.78V60.25c0,2.44-2.46,4.41-5.5,4.41H38.87c-3,0-5.5-2-5.5-4.41V44.73c0-4.85,4.92-8.78,11-8.78h11.3m0-2.8H44.35c-8,0-14.48,5.19-14.48,11.58V60.25c0,4,4,7.21,9,7.21H61.13c5,0,9-3.23,9-7.21V44.73c0-6.39-6.5-11.58-14.48-11.58Z"/><path class="cls-6" d="M38.87,68.9a6.17,6.17,0,0,1-6.16-6.16V43.34A11.65,11.65,0,0,1,44.35,31.7h11.3A11.65,11.65,0,0,1,67.29,43.34v19.4a6.17,6.17,0,0,1-6.16,6.16Z"/><path class="cls-7" d="M55.65,32.36a11,11,0,0,1,11,11v19.4a5.51,5.51,0,0,1-5.5,5.51H38.87a5.51,5.51,0,0,1-5.5-5.51V43.34a11,11,0,0,1,11-11h11.3m0-1.32H44.35a12.31,12.31,0,0,0-12.29,12.3v19.4a6.82,6.82,0,0,0,6.81,6.82H61.13a6.82,6.82,0,0,0,6.81-6.82V43.34A12.31,12.31,0,0,0,55.65,31Z"/><path class="cls-12" d="M44.62,36.67H55.38a6.44,6.44,0,0,1,6.44,6.44V63a.93.93,0,0,1-.93.93H39.12a.93.93,0,0,1-.93-.93V43.11a6.44,6.44,0,0,1,6.44-6.44Z"/><path class="cls-7" d="M60.88,64.62H39.12A1.63,1.63,0,0,1,37.5,63V43.1A7.13,7.13,0,0,1,44.62,36H55.38A7.13,7.13,0,0,1,62.5,43.1V63A1.63,1.63,0,0,1,60.88,64.62ZM44.62,37.35a5.77,5.77,0,0,0-5.76,5.75V63a.26.26,0,0,0,.26.26H60.88a.26.26,0,0,0,.26-.26V43.1a5.77,5.77,0,0,0-5.76-5.75Z"/><rect class="cls-7" x="46.66" y="57.44" width="6.68" height="4.47"/><rect class="cls-7" x="41.97" y="64.44" width="16.06" height="4.47"/><path class="cls-6" d="M43.63,56.35V44.54a2.9,2.9,0,0,1,2.9-2.9h6.94a2.9,2.9,0,0,1,2.9,2.9V56.35Z"/><path class="cls-13" d="M53.47,43.92a.62.62,0,0,1,.62.62v9.52H45.91V44.54a.62.62,0,0,1,.62-.62h6.94m0-4.57H46.53a5.2,5.2,0,0,0-5.19,5.19V58.63H58.66V44.54a5.2,5.2,0,0,0-5.19-5.19Z"/><path class="cls-7" d="M53.47,43.92a.62.62,0,0,1,.62.62v9.52H45.91V44.54a.62.62,0,0,1,.62-.62h6.94m0-3H46.53a3.67,3.67,0,0,0-3.67,3.66V57.11H57.14V44.54a3.67,3.67,0,0,0-3.67-3.66Z"/><path class="cls-12" d="M53.47,43.92a.62.62,0,0,1,.62.62v9.52H45.91V44.54a.62.62,0,0,1,.62-.62h6.94m0-1.52H46.53a2.14,2.14,0,0,0-2.14,2.14v11H55.61v-11a2.14,2.14,0,0,0-2.14-2.14Z"/><rect class="cls-8" x="39.54" y="45.51" width="1.7" height="9.59"/></g></g><g id="tier"><path class="cls-7" d="M47.83,52.52a6.36,6.36,0,0,1,0-1.51h1.52V46.73H47.8a6.36,6.36,0,0,1,0-1.51h3.42V51h1.53a7.62,7.62,0,0,1,0,1.51Z"/></g></g><g class="cls-14"><path class="cls-15" d="M50,1A49,49,0,1,1,1,50,49.05,49.05,0,0,1,50,1m0-1a50,50,0,1,0,50,50A50,50,0,0,0,50,0Z"/></g></g></g></g></g></svg>