<svg xmlns="http://www.w3.org/2000/svg" viewBox="0 0 100 100"><defs><style>.cls-1{isolation:isolate;}.cls-2{fill:#000086;}.cls-3{fill:#b93dd5;}.cls-4{fill:red;}.cls-5{fill:#e4e4e4;}.cls-6{fill:#8fffff;}.cls-7{fill:#fff;}.cls-8{mix-blend-mode:multiply;}.cls-9{fill:#599dac;}.cls-10{fill:#e48a20;}.cls-11{fill:#0000f9;}.cls-12{fill:#da0100;}.cls-13{opacity:0.1;}.cls-14{fill:#da00f9;}</style></defs><title>galactic-marine-frame-1</title><g class="cls-1"><g id="Layer_2" data-name="Layer 2"><g id="Towers"><g id="galactic-marine-frame-1"><g id="tower-tier-1-shot-frame-1"><g id="foundation"><circle class="cls-2" cx="49.99" cy="49.93" r="31.07"/><path class="cls-3" d="M50,81.66A31.73,31.73,0,1,1,81.72,49.93,31.76,31.76,0,0,1,50,81.66Zm0-62.15A30.42,30.42,0,1,0,80.41,49.93,30.46,30.46,0,0,0,50,19.51Z"/></g><g id="lights"><g id="left-light"><circle class="cls-4" cx="37.32" cy="28.73" r="2.32"/><path class="cls-5" d="M37.32,31.41A2.68,2.68,0,1,1,40,28.73,2.68,2.68,0,0,1,37.32,31.41Zm0-4.63a1.95,1.95,0,1,0,2,1.95A1.95,1.95,0,0,0,37.32,26.78Z"/></g><g id="right-light"><circle class="cls-4" cx="62.43" cy="28.61" r="2.32"/><path class="cls-5" d="M62.43,31.3a2.69,2.69,0,1,1,2.68-2.69A2.69,2.69,0,0,1,62.43,31.3Zm0-4.64a2,2,0,1,0,1.95,1.95A2,2,0,0,0,62.43,26.66Z"/></g></g><g id="tower"><g id="barrel"><rect class="cls-6" x="46.95" y="7.32" width="6.09" height="10.42"/><path d="M52.38,8v9.11H47.6V8h4.78m1.31-1.31h-7.4V18.4h7.4V6.66Z"/><rect class="cls-6" x="45.46" y="17.32" width="9.06" height="15.17"/><path d="M53.86,18V31.83H46.12V18h7.74m1.31-1.32H44.8V33.15H55.17V16.66Z"/><rect class="cls-7" x="46.12" y="17.98" width="1.48" height="13.14"/><g class="cls-8"><rect class="cls-7" x="48.04" y="8.41" width="0.61" height="22.27"/><polygon class="cls-9" points="49.09 7.97 47.6 7.97 47.6 31.11 49.09 31.11 49.09 7.97 49.09 7.97"/></g></g><g id="base"><path class="cls-10" d="M38.42,69.14H61.56a0,0,0,0,1,0,0v.25a2,2,0,0,1-2,2H40.41a2,2,0,0,1-2-2v-.25A0,0,0,0,1,38.42,69.14Z"/><path d="M55.64,38.65c6.06,0,11,3.2,11,7.14V58.4c0,2-2.46,3.58-5.5,3.58H38.86c-3,0-5.5-1.6-5.5-3.58V45.79c0-3.94,4.92-7.14,11-7.14h11.3m0-5.12H44.34c-10.4,0-18.86,5.5-18.86,12.26V58.4c0,4.8,6,8.7,13.38,8.7H61.12c7.38,0,13.38-3.9,13.38-8.7V45.79C74.5,39,66,33.53,55.64,33.53Z"/><path class="cls-10" d="M55.64,37.76c6.06,0,11,3.44,11,7.68V59c0,2.13-2.46,3.86-5.5,3.86H38.86c-3,0-5.5-1.73-5.5-3.86V45.44c0-4.24,4.92-7.68,11-7.68h11.3m0-3.68H44.34c-9,0-16.23,5.1-16.23,11.36V59c0,4.16,4.82,7.53,10.75,7.53H61.12c5.93,0,10.75-3.37,10.75-7.53V45.44c0-6.26-7.28-11.36-16.23-11.36Z"/><path d="M55.64,36c6.06,0,11,3.94,11,8.79V60.27c0,2.43-2.46,4.4-5.5,4.4H38.86c-3,0-5.5-2-5.5-4.4V44.75c0-4.85,4.92-8.79,11-8.79h11.3m0-2.8H44.34c-8,0-14.48,5.2-14.48,11.59V60.27c0,4,4,7.2,9,7.2H61.12c5,0,9-3.23,9-7.2V44.75c0-6.39-6.5-11.59-14.48-11.59Z"/><path class="cls-6" d="M38.86,68.92a6.18,6.18,0,0,1-6.16-6.16V43.36A11.65,11.65,0,0,1,44.34,31.72h11.3A11.65,11.65,0,0,1,67.28,43.36v19.4a6.18,6.18,0,0,1-6.16,6.16Z"/><path d="M55.64,32.37a11,11,0,0,1,11,11v19.4a5.5,5.5,0,0,1-5.5,5.5H38.86a5.5,5.5,0,0,1-5.5-5.5V43.36a11,11,0,0,1,11-11h11.3m0-1.31H44.34A12.32,12.32,0,0,0,32,43.36v19.4a6.82,6.82,0,0,0,6.82,6.81H61.12a6.81,6.81,0,0,0,6.81-6.81V43.36a12.31,12.31,0,0,0-12.29-12.3Z"/><path class="cls-11" d="M44.61,36.68H55.37a6.44,6.44,0,0,1,6.44,6.44V63a.93.93,0,0,1-.93.93H39.11a.93.93,0,0,1-.93-.93V43.12a6.44,6.44,0,0,1,6.44-6.44Z"/><path d="M60.87,64.63H39.11A1.62,1.62,0,0,1,37.49,63V43.12A7.12,7.12,0,0,1,44.61,36H55.37a7.13,7.13,0,0,1,7.12,7.12V63A1.62,1.62,0,0,1,60.87,64.63ZM44.61,37.36a5.77,5.77,0,0,0-5.76,5.76V63a.26.26,0,0,0,.26.25H60.87a.25.25,0,0,0,.25-.25V43.12a5.77,5.77,0,0,0-5.75-5.76Z"/><rect x="46.65" y="57.45" width="6.68" height="4.47"/><rect x="41.96" y="64.45" width="16.06" height="4.47"/><path class="cls-6" d="M43.61,56.36V44.56a2.91,2.91,0,0,1,2.91-2.91h6.94a2.9,2.9,0,0,1,2.9,2.91v11.8Z"/><path class="cls-12" d="M53.46,43.94a.62.62,0,0,1,.62.62v9.52H45.9V44.56a.62.62,0,0,1,.62-.62h6.94m0-4.57H46.52a5.2,5.2,0,0,0-5.19,5.19V58.65H58.65V44.56a5.2,5.2,0,0,0-5.19-5.19Z"/><path d="M53.46,43.94a.62.62,0,0,1,.62.62v9.52H45.9V44.56a.62.62,0,0,1,.62-.62h6.94m0-3H46.52a3.67,3.67,0,0,0-3.67,3.67V57.12H57.13V44.56a3.67,3.67,0,0,0-3.67-3.67Z"/><path class="cls-11" d="M53.46,43.94a.62.62,0,0,1,.62.62v9.52H45.9V44.56a.62.62,0,0,1,.62-.62h6.94m0-1.53H46.52a2.14,2.14,0,0,0-2.14,2.15v11H55.6v-11a2.14,2.14,0,0,0-2.14-2.15Z"/><rect class="cls-7" x="39.53" y="45.52" width="1.7" height="9.59"/></g></g><g id="tier"><path d="M47.82,52.53a6.36,6.36,0,0,1,0-1.51h1.52V46.75H47.79a6.36,6.36,0,0,1,0-1.51h3.42V51h1.52a6.36,6.36,0,0,1,0,1.51Z"/></g></g><g class="cls-13"><path class="cls-14" d="M50,1A49,49,0,1,1,1,50,49.05,49.05,0,0,1,50,1m0-1a50,50,0,1,0,50,50A50,50,0,0,0,50,0Z"/></g></g></g></g></g></svg>