<svg xmlns="http://www.w3.org/2000/svg" viewBox="0 0 100 100"><defs><style>.cls-1{isolation:isolate;}.cls-2{fill:#c26f8f;}.cls-3{fill:red;}.cls-4{fill:#e4e4e4;}.cls-5{fill:#e8a326;}.cls-6{fill:#fff;}.cls-7{mix-blend-mode:multiply;}.cls-8{fill:#de912f;}.cls-9{fill:#e48a20;}.cls-10{fill:#8fffff;}.cls-11{fill:#da0100;}.cls-12{fill:#000086;}.cls-13{fill:#0000f9;}.cls-14{opacity:0.1;}.cls-15{fill:#da00f9;}</style></defs><title>orcus-charger-frame-1</title><g class="cls-1"><g id="Layer_2" data-name="Layer 2"><g id="Towers"><g id="orcus-charger-frame-1"><g id="tower-tier-2-shot-frame-1"><g id="foundation"><circle cx="50" cy="49.95" r="31.42"/><path class="cls-2" d="M50,82A32.09,32.09,0,1,1,82.08,50,32.12,32.12,0,0,1,50,82ZM50,19.2A30.76,30.76,0,1,0,80.75,50,30.79,30.79,0,0,0,50,19.2Z"/></g><g id="lights"><g id="left-light"><circle class="cls-3" cx="37.19" cy="28.52" r="2.34"/><path class="cls-4" d="M37.19,31.23a2.71,2.71,0,1,1,2.71-2.71A2.71,2.71,0,0,1,37.19,31.23Zm0-4.68a2,2,0,1,0,2,2A2,2,0,0,0,37.19,26.55Z"/></g><g id="right-light"><circle class="cls-3" cx="62.58" cy="28.4" r="2.34"/><path class="cls-4" d="M62.58,31.12a2.72,2.72,0,1,1,2.71-2.72A2.71,2.71,0,0,1,62.58,31.12Zm0-4.69a2,2,0,1,0,2,2A2,2,0,0,0,62.58,26.43Z"/></g></g><g id="tower"><g id="barrel"><rect class="cls-5" x="46.04" y="7.7" width="7.93" height="9.71"/><path d="M53.3,8.36v8.38H46.7V8.36h6.6M54.63,7H45.37v11h9.26V7Z"/><rect class="cls-5" x="44.54" y="16.98" width="10.93" height="15.34"/><path d="M54.8,17.65v14H45.2v-14h9.6m1.33-1.33H43.87V33H56.13V16.32Z"/><rect class="cls-6" x="45.2" y="17.65" width="1.5" height="13.28"/><g class="cls-7"><rect class="cls-6" x="47.14" y="8.81" width="0.62" height="21.68"/><polygon class="cls-8" points="48.2 8.36 46.7 8.36 46.7 30.93 48.2 30.93 48.2 8.36 48.2 8.36"/></g></g><g id="base"><path class="cls-9" d="M38.31,69.37H61.69a0,0,0,0,1,0,0v.25a2,2,0,0,1-2,2H40.31a2,2,0,0,1-2-2v-.25A0,0,0,0,1,38.31,69.37Z"/><path class="cls-10" d="M55.71,38.55c6.13,0,11.11,3.23,11.11,7.22V58.52c0,2-2.5,3.62-5.57,3.62H38.75c-3.07,0-5.57-1.62-5.57-3.62V45.77c0-4,5-7.22,11.11-7.22H55.71m0-5.18H44.29c-10.52,0-19.07,5.57-19.07,12.4V58.52c0,4.85,6.07,8.8,13.53,8.8h22.5c7.46,0,13.53-3.95,13.53-8.8V45.77c0-6.83-8.55-12.4-19.07-12.4Z"/><path class="cls-11" d="M55.71,37.65c6.13,0,11.11,3.48,11.11,7.77V59.15c0,2.15-2.5,3.89-5.57,3.89H38.75c-3.07,0-5.57-1.74-5.57-3.89V45.42c0-4.29,5-7.77,11.11-7.77H55.71m0-3.72H44.29c-9,0-16.42,5.15-16.42,11.49V59.15c0,4.2,4.88,7.61,10.88,7.61h22.5c6,0,10.88-3.41,10.88-7.61V45.42c0-6.34-7.37-11.49-16.42-11.49Z"/><path d="M55.71,35.83c6.13,0,11.11,4,11.11,8.88v15.7c0,2.46-2.5,4.45-5.57,4.45H38.75c-3.07,0-5.57-2-5.57-4.45V44.71c0-4.9,5-8.88,11.11-8.88H55.71m0-2.83H44.29c-8.08,0-14.65,5.25-14.65,11.71v15.7c0,4,4.09,7.28,9.11,7.28h22.5c5,0,9.11-3.27,9.11-7.28V44.71C70.36,38.25,63.79,33,55.71,33Z"/><path class="cls-5" d="M38.75,69.15a6.24,6.24,0,0,1-6.23-6.23V43.31A11.78,11.78,0,0,1,44.29,31.54H55.71A11.78,11.78,0,0,1,67.48,43.31V62.92a6.24,6.24,0,0,1-6.23,6.23Z"/><path d="M55.71,32.2A11.11,11.11,0,0,1,66.82,43.31V62.92a5.57,5.57,0,0,1-5.57,5.57H38.75a5.57,5.57,0,0,1-5.57-5.57V43.31A11.11,11.11,0,0,1,44.29,32.2H55.71m0-1.33H44.29A12.44,12.44,0,0,0,31.86,43.31V62.92a6.91,6.91,0,0,0,6.89,6.9h22.5a6.91,6.91,0,0,0,6.89-6.9V43.31A12.44,12.44,0,0,0,55.71,30.87Z"/><path class="cls-12" d="M44.56,36.56H55.44a6.51,6.51,0,0,1,6.51,6.51V63.19a.94.94,0,0,1-.94.94H39a.94.94,0,0,1-.94-.94V43.07a6.51,6.51,0,0,1,6.51-6.51Z"/><path d="M61,64.82H39a1.64,1.64,0,0,1-1.64-1.63V43.07a7.21,7.21,0,0,1,7.2-7.2H55.44a7.21,7.21,0,0,1,7.2,7.2V63.19A1.64,1.64,0,0,1,61,64.82ZM44.56,37.25a5.83,5.83,0,0,0-5.82,5.82V63.19a.26.26,0,0,0,.26.25H61a.26.26,0,0,0,.26-.25V43.07a5.83,5.83,0,0,0-5.82-5.82Z"/><rect x="41.88" y="64.64" width="16.23" height="4.52"/><path class="cls-11" d="M43.55,56.46V44.52a2.94,2.94,0,0,1,2.94-2.94h7a2.94,2.94,0,0,1,2.94,2.94V56.46Z"/><path class="cls-11" d="M53.51,43.89a.63.63,0,0,1,.63.63v9.63H45.86V44.52a.63.63,0,0,1,.63-.63h7m0-4.62h-7a5.25,5.25,0,0,0-5.24,5.25V58.77h17.5V44.52a5.25,5.25,0,0,0-5.24-5.25Z"/><path d="M53.51,43.89a.63.63,0,0,1,.63.63v9.63H45.86V44.52a.63.63,0,0,1,.63-.63h7m0-3.08h-7a3.71,3.71,0,0,0-3.7,3.71V57.23H57.22V44.52a3.72,3.72,0,0,0-3.71-3.71Z"/><path class="cls-13" d="M53.51,43.89a.63.63,0,0,1,.63.63v9.63H45.86V44.52a.63.63,0,0,1,.63-.63h7m0-1.54h-7a2.18,2.18,0,0,0-2.17,2.17V55.69H55.68V44.52a2.18,2.18,0,0,0-2.17-2.17Z"/><rect class="cls-6" x="39.42" y="45.5" width="1.72" height="9.7"/></g></g><g id="tier"><path d="M47.38,52.59V50.48a1.8,1.8,0,0,1,1.25-1.79L50,48.16c.68-.26.89-.39.89-.76v-.25c0-.51-.47-.55-1.36-.55-.47,0-1.32.06-2,.14a7.62,7.62,0,0,1,0-1.51,14.89,14.89,0,0,1,2.35-.16c1.81,0,2.94.45,2.94,1.72v.9c0,.78-.31,1.2-1.36,1.59L50,49.8c-.48.19-.8.33-.8,1v.25h3.49a6.53,6.53,0,0,1,0,1.53Z"/></g></g><g class="cls-14"><path class="cls-15" d="M50,1A49,49,0,1,1,1,50,49.05,49.05,0,0,1,50,1m0-1a50,50,0,1,0,50,50A50,50,0,0,0,50,0Z"/></g></g></g></g></g></svg>