<svg xmlns="http://www.w3.org/2000/svg" viewBox="0 0 63.46 76"><defs><style>.cls-1{isolation:isolate;}.cls-2{fill:#000086;}.cls-3{fill:#b93dd5;}.cls-4{fill:#7f7f7f;}.cls-5{fill:#e4e4e4;}.cls-6{fill:#8fffff;}.cls-7{fill:#fff;}.cls-8{mix-blend-mode:multiply;}.cls-9{fill:#599dac;}.cls-10{fill:#e48a20;}.cls-11{fill:#0000f9;}.cls-12{fill:#da0100;}</style></defs><title>tower-tier-1-shot-frame-1</title><g class="cls-1"><g id="Layer_2" data-name="Layer 2"><g id="Layer_1-2" data-name="Layer 1"><g id="tower-tier-1-shot-frame-1"><g id="foundation"><circle class="cls-2" cx="31.73" cy="44.27" r="31.07"/><path class="cls-3" d="M31.73,76A31.73,31.73,0,1,1,63.46,44.27,31.76,31.76,0,0,1,31.73,76Zm0-62.15A30.42,30.42,0,1,0,62.15,44.27,30.46,30.46,0,0,0,31.73,13.85Z"/></g><g id="lights"><g id="left-light"><circle class="cls-4" cx="19.06" cy="23.07" r="2.32"/><path class="cls-5" d="M19.06,25.75a2.68,2.68,0,1,1,2.69-2.68A2.68,2.68,0,0,1,19.06,25.75Zm0-4.63a2,2,0,1,0,2,1.95A1.95,1.95,0,0,0,19.06,21.12Z"/></g><g id="right-light"><circle class="cls-4" cx="44.17" cy="22.95" r="2.32"/><path class="cls-5" d="M44.17,25.64A2.69,2.69,0,1,1,46.86,23,2.69,2.69,0,0,1,44.17,25.64Zm0-4.64a2,2,0,1,0,2,1.95A2,2,0,0,0,44.17,21Z"/></g></g><g id="tower"><g id="barrel"><rect class="cls-6" x="28.69" y="0.66" width="6.09" height="11.42"/><path d="M34.12,1.31V11.42H29.34V1.31h4.78M35.43,0H28V12.73h7.4V0Z"/><rect class="cls-6" x="27.2" y="11.66" width="9.06" height="15.17"/><path d="M35.6,12.31V26.17H27.86V12.31H35.6M36.91,11H26.55V27.48H36.91V11Z"/><rect class="cls-7" x="27.86" y="12.31" width="1.48" height="13.14"/><g class="cls-8"><rect class="cls-7" x="29.78" y="1.75" width="0.61" height="23.27"/><polygon class="cls-9" points="30.83 1.31 29.34 1.31 29.34 25.45 30.83 25.45 30.83 1.31 30.83 1.31"/></g></g><g id="base"><path class="cls-10" d="M20.16,63.47H43.3a0,0,0,0,1,0,0v.25a2,2,0,0,1-2,2H22.15a2,2,0,0,1-2-2v-.25a0,0,0,0,1,0,0Z"/><path d="M37.38,33c6.06,0,11,3.2,11,7.14V52.74c0,2-2.46,3.58-5.5,3.58H20.6c-3,0-5.5-1.6-5.5-3.58V40.13c0-3.94,4.92-7.14,11-7.14h11.3m0-5.12H26.08c-10.4,0-18.86,5.5-18.86,12.26V52.74c0,4.8,6,8.7,13.38,8.7H42.86c7.38,0,13.38-3.9,13.38-8.7V40.13c0-6.76-8.46-12.26-18.86-12.26Z"/><path class="cls-10" d="M37.38,32.09c6.06,0,11,3.45,11,7.69V53.36c0,2.13-2.46,3.86-5.5,3.86H20.6c-3,0-5.5-1.73-5.5-3.86V39.78c0-4.24,4.92-7.69,11-7.69h11.3m0-3.67H26.08c-8.95,0-16.23,5.1-16.23,11.36V53.36c0,4.15,4.82,7.53,10.75,7.53H42.86c5.93,0,10.75-3.38,10.75-7.53V39.78c0-6.26-7.28-11.36-16.23-11.36Z"/><path d="M37.38,30.3c6.06,0,11,3.93,11,8.79V54.61c0,2.43-2.46,4.4-5.5,4.4H20.6c-3,0-5.5-2-5.5-4.4V39.09c0-4.86,4.92-8.79,11-8.79h11.3m0-2.8H26.08c-8,0-14.48,5.2-14.48,11.59V54.61c0,4,4,7.2,9,7.2H42.86c5,0,9-3.23,9-7.2V39.09c0-6.39-6.49-11.59-14.48-11.59Z"/><path class="cls-6" d="M20.6,63.26a6.18,6.18,0,0,1-6.16-6.16V37.69A11.66,11.66,0,0,1,26.08,26.05h11.3A11.66,11.66,0,0,1,49,37.69V57.1a6.18,6.18,0,0,1-6.16,6.16Z"/><path d="M37.38,26.71a11,11,0,0,1,11,11V57.1a5.5,5.5,0,0,1-5.5,5.5H20.6a5.5,5.5,0,0,1-5.5-5.5V37.69a11,11,0,0,1,11-11h11.3m0-1.31H26.08A12.3,12.3,0,0,0,13.79,37.69V57.1a6.82,6.82,0,0,0,6.81,6.81H42.86a6.82,6.82,0,0,0,6.81-6.81V37.69A12.3,12.3,0,0,0,37.38,25.4Z"/><path class="cls-11" d="M26.35,31H37.11a6.44,6.44,0,0,1,6.44,6.44v19.9a.93.93,0,0,1-.93.93H20.85a.93.93,0,0,1-.93-.93V37.46A6.44,6.44,0,0,1,26.35,31Z"/><path d="M42.61,59H20.85a1.62,1.62,0,0,1-1.62-1.61V37.46a7.13,7.13,0,0,1,7.12-7.12H37.11a7.12,7.12,0,0,1,7.12,7.12v19.9A1.62,1.62,0,0,1,42.61,59ZM26.35,31.7a5.76,5.76,0,0,0-5.75,5.76v19.9a.25.25,0,0,0,.25.25H42.61a.26.26,0,0,0,.26-.25V37.46a5.77,5.77,0,0,0-5.76-5.76Z"/><rect x="28.39" y="51.79" width="6.68" height="4.47"/><rect x="23.7" y="58.79" width="16.06" height="4.47"/><path class="cls-6" d="M25.36,50.7V38.89a2.9,2.9,0,0,1,2.9-2.9H35.2a2.91,2.91,0,0,1,2.91,2.9V50.7Z"/><path class="cls-12" d="M35.2,38.27a.62.62,0,0,1,.62.62v9.53H27.64V38.89a.62.62,0,0,1,.62-.62H35.2m0-4.56H28.26a5.19,5.19,0,0,0-5.19,5.18V53H40.39V38.89a5.19,5.19,0,0,0-5.19-5.18Z"/><path d="M35.2,38.27a.62.62,0,0,1,.62.62v9.53H27.64V38.89a.62.62,0,0,1,.62-.62H35.2m0-3H28.26a3.67,3.67,0,0,0-3.67,3.66V51.46H38.87V38.89a3.67,3.67,0,0,0-3.67-3.66Z"/><path class="cls-11" d="M35.2,38.27a.62.62,0,0,1,.62.62v9.53H27.64V38.89a.62.62,0,0,1,.62-.62H35.2m0-1.52H28.26a2.14,2.14,0,0,0-2.14,2.14v11H37.34v-11a2.14,2.14,0,0,0-2.14-2.14Z"/><rect class="cls-7" x="21.27" y="39.86" width="1.7" height="9.59"/></g></g><g id="tier"><path d="M29.56,46.87a7.62,7.62,0,0,1,0-1.51h1.52V41.09H29.53a6.36,6.36,0,0,1,0-1.51H33v5.78h1.53a7.62,7.62,0,0,1,0,1.51Z"/></g></g></g></g></g></svg>