<svg xmlns="http://www.w3.org/2000/svg" viewBox="0 0 61.24 71"><defs><style>.cls-1{isolation:isolate;}.cls-2{fill:#00007d;}.cls-3{fill:#8fffff;}.cls-4{fill:#7f7f7f;}.cls-5{fill:#e4e4e4;}.cls-6{fill:#772fdc;}.cls-7{fill:#fff;}.cls-8{mix-blend-mode:multiply;}.cls-9{fill:#23139c;}.cls-10{fill:#0000f9;}.cls-11{fill:#d480e9;}.cls-12{fill:#000086;}.cls-13{fill:#c7ff4b;}</style></defs><title>tower-tier-3-shot-frame-3</title><g class="cls-1"><g id="Layer_2" data-name="Layer 2"><g id="Layer_1-2" data-name="Layer 1"><g id="tower-tier-3-shot-frame-3"><g id="foundation"><circle class="cls-2" cx="30.62" cy="40.38" r="29.99"/><path class="cls-3" d="M30.62,71A30.62,30.62,0,1,1,61.24,40.38,30.66,30.66,0,0,1,30.62,71Zm0-60A29.35,29.35,0,1,0,60,40.38,29.38,29.38,0,0,0,30.62,11Z"/></g><g id="lights"><g id="left-light"><circle class="cls-4" cx="16.71" cy="19.92" r="2.24"/><path class="cls-5" d="M16.71,22.51a2.59,2.59,0,1,1,2.58-2.59A2.59,2.59,0,0,1,16.71,22.51Zm0-4.47a1.89,1.89,0,1,0,1.88,1.88A1.89,1.89,0,0,0,16.71,18Z"/></g><g id="right-light"><circle class="cls-4" cx="44.31" cy="19.81" r="2.24"/><path class="cls-5" d="M44.31,22.4a2.59,2.59,0,1,1,2.59-2.59A2.59,2.59,0,0,1,44.31,22.4Zm0-4.47a1.89,1.89,0,1,0,1.89,1.88A1.88,1.88,0,0,0,44.31,17.93Z"/></g></g><g id="double-barrel"><g id="left-barrel"><rect class="cls-6" x="22.4" y="0.61" width="6.46" height="11.11"/><path d="M28.25,1.22v9.89H23V1.22h5.24M29.48,0H21.79V12.33h7.69V0Z"/><rect class="cls-6" x="21.02" y="11.33" width="9.22" height="12.67"/><path d="M29.63,12V23.39h-8V12h8m1.22-1.23H20.41v13.9H30.85V10.72Z"/><rect class="cls-7" x="21.63" y="11.95" width="1.38" height="10.77"/><g class="cls-8"><rect class="cls-9" x="23.01" y="1.22" width="1.38" height="21.5"/></g></g><g id="right-barrel"><rect class="cls-6" x="32.14" y="4.61" width="6.46" height="9.11"/><path d="M38,5.22v7.89H32.75V5.22H38M39.22,4H31.53V14.33h7.69V4Z"/><rect class="cls-6" x="30.76" y="13.33" width="9.22" height="10.67"/><path d="M39.37,14v9.44h-8V14h8m1.22-1.23H30.15v11.9H40.59V12.72Z"/><rect class="cls-7" x="31.38" y="13.95" width="1.38" height="8.77"/><g class="cls-8"><rect class="cls-9" x="32.75" y="5.22" width="1.38" height="17.5"/></g></g></g><g id="base"><path d="M18.27,61.26H42.9a0,0,0,0,1,0,0v1.85a1.15,1.15,0,0,1-1.15,1.15H19.43a1.15,1.15,0,0,1-1.15-1.15V61.26A0,0,0,0,1,18.27,61.26Z"/><path class="cls-10" d="M18.27,58.91H42.9a0,0,0,0,1,0,0v1.85a1.15,1.15,0,0,1-1.15,1.15H19.43a1.15,1.15,0,0,1-1.15-1.15V58.91A0,0,0,0,1,18.27,58.91Z"/><path d="M37.7,30.36c5.85,0,10.59,2.85,10.59,6.36V48c0,1.76-2.37,3.18-5.31,3.18H18.19c-2.93,0-5.31-1.42-5.31-3.18V36.72c0-3.51,4.75-6.36,10.6-6.36H37.7m0-5.06H23.48c-10.5,0-19,5.12-19,11.42V48c0,4.55,6.18,8.25,13.76,8.25H43c7.59,0,13.76-3.7,13.76-8.25V36.72c0-6.3-8.54-11.42-19-11.42Z"/><path class="cls-11" d="M37.7,29.5c5.85,0,10.59,3.08,10.59,6.89V48.56c0,1.9-2.37,3.45-5.31,3.45H18.19c-2.93,0-5.31-1.55-5.31-3.45V36.39c0-3.81,4.75-6.89,10.6-6.89H37.7m0-4.39H23.48c-9.57,0-17.36,5.06-17.36,11.28V48.56c0,4.32,5.42,7.84,12.07,7.84H43c6.66,0,12.07-3.52,12.07-7.84V36.39c0-6.22-7.78-11.28-17.35-11.28Z"/><path class="cls-3" d="M37.7,28.63c5.85,0,10.59,3.32,10.59,7.42V49.16c0,2.05-2.37,3.71-5.31,3.71H18.19c-2.93,0-5.31-1.66-5.31-3.71V36.05c0-4.1,4.75-7.42,10.6-7.42H37.7m0-3.55H23.48c-8.64,0-15.67,4.92-15.67,11V49.16c0,4,4.66,7.26,10.38,7.26H43c5.73,0,10.38-3.26,10.38-7.26V36.05c0-6-7-11-15.66-11Z"/><path d="M37.7,26.9c5.85,0,10.59,3.8,10.59,8.48v15c0,2.34-2.37,4.25-5.31,4.25H18.19c-2.93,0-5.31-1.91-5.31-4.25v-15c0-4.68,4.75-8.48,10.6-8.48H37.7m0-2.7H23.48c-7.71,0-14,5-14,11.18v15c0,3.83,3.9,7,8.69,7H43c4.8,0,8.69-3.12,8.69-7v-15c0-6.17-6.27-11.18-14-11.18Z"/><path class="cls-6" d="M18.19,58.7a5.94,5.94,0,0,1-5.94-5.94V34A11.25,11.25,0,0,1,23.48,22.8H37.7A11.25,11.25,0,0,1,48.93,34V52.76a6,6,0,0,1-6,5.94Z"/><path d="M37.7,23.44A10.59,10.59,0,0,1,48.29,34V52.76A5.31,5.31,0,0,1,43,58.07H18.19a5.31,5.31,0,0,1-5.31-5.31V34a10.6,10.6,0,0,1,10.6-10.6H37.7m0-1.27H23.48A11.88,11.88,0,0,0,11.61,34V52.76a6.6,6.6,0,0,0,6.58,6.58H43a6.59,6.59,0,0,0,6.58-6.58V34A11.88,11.88,0,0,0,37.7,22.17Z"/><path class="cls-12" d="M24.22,27.6H37a6.21,6.21,0,0,1,6.21,6.21V53a.9.9,0,0,1-.9.9H18.91A.9.9,0,0,1,18,53V33.81a6.21,6.21,0,0,1,6.21-6.21Z"/><path d="M42.27,54.57H18.91A1.56,1.56,0,0,1,17.35,53V33.81a6.88,6.88,0,0,1,6.87-6.87H37a6.88,6.88,0,0,1,6.87,6.87V53A1.56,1.56,0,0,1,42.27,54.57ZM24.22,28.25a5.57,5.57,0,0,0-5.56,5.56V53a.25.25,0,0,0,.25.24H42.27a.24.24,0,0,0,.24-.24V33.81A5.57,5.57,0,0,0,37,28.25Z"/><rect class="cls-7" x="20.03" y="36.18" width="1.81" height="9.26"/><rect x="22.04" y="54.39" width="17.09" height="4.31"/><path class="cls-3" d="M24,46.59V35.19a2.81,2.81,0,0,1,2.8-2.8h7.51a2.81,2.81,0,0,1,2.81,2.8v11.4Z"/><path class="cls-13" d="M34.34,34.6a.59.59,0,0,1,.6.59v9.19H26.23V35.19a.59.59,0,0,1,.6-.59h7.51m0-4.41H26.83a5,5,0,0,0-5,5v13.6H39.35V35.19a5,5,0,0,0-5-5Z"/><path d="M34.34,34.6a.59.59,0,0,1,.6.59v9.19H26.23V35.19a.59.59,0,0,1,.6-.59h7.51m0-2.94H26.83a3.54,3.54,0,0,0-3.54,3.53V47.32H37.88V35.19a3.53,3.53,0,0,0-3.54-3.53Z"/><path class="cls-10" d="M34.34,34.6a.59.59,0,0,1,.6.59v9.19H26.23V35.19a.59.59,0,0,1,.6-.59h7.51m0-1.47H26.83a2.07,2.07,0,0,0-2.07,2.06V45.85H36.41V35.19a2.06,2.06,0,0,0-2.07-2.06Z"/></g><g id="tier"><path d="M33.32,41.31c0,1.23-1.18,1.71-3,1.71a12.78,12.78,0,0,1-2.1-.16,7,7,0,0,1,0-1.45,13.25,13.25,0,0,0,1.92.14c.79,0,1.36,0,1.36-.57v-.35c0-.49-.58-.59-1.33-.59H29a6.74,6.74,0,0,1,0-1.42h1.2c.64,0,1.23-.07,1.23-.51v-.4c0-.48-.5-.53-1.26-.53-.44,0-1.24.06-1.9.13a8.65,8.65,0,0,1,0-1.44,13.21,13.21,0,0,1,2.08-.15c1.76,0,2.87.43,2.87,1.73V38a1.29,1.29,0,0,1-1.06,1.35,1.4,1.4,0,0,1,1.16,1.48Z"/></g></g></g></g></g></svg>