<svg xmlns="http://www.w3.org/2000/svg" viewBox="0 0 100 100"><defs><style>.cls-1{opacity:0.01;}.cls-2{fill:#1b1926;}.cls-3{fill:blue;}.cls-4{fill:aqua;}.cls-5{fill:#8a2be2;}.cls-6{fill:#fff;}.cls-7{fill:violet;}</style></defs><title>charge-tier-3-right</title><g id="Layer_2" data-name="Layer 2"><g id="Towers_and_enemies_design" data-name="Towers and enemies design"><g id="charge-tier-3-right"><g class="cls-1"><path class="cls-2" d="M50,1A49,49,0,1,1,1,50,49.05,49.05,0,0,1,50,1m0-1a50,50,0,1,0,50,50A50,50,0,0,0,50,0Z"/></g><g id="charge-tier-3"><path class="cls-3" d="M54.94,2.38a1.36,1.36,0,0,1,1.35,1.36V9.15H53.44V3.74a1.36,1.36,0,0,1,1.35-1.36h.15m0-2.1h-.15a3.46,3.46,0,0,0-3.45,3.46v7.51h7V3.74A3.46,3.46,0,0,0,54.94.28Z"/><path class="cls-4" d="M54.94,1.33a1.36,1.36,0,0,1,1.35,1.35V8.09H53.44V2.68a1.36,1.36,0,0,1,1.35-1.35h.15m0-1h-.15a2.41,2.41,0,0,0-2.4,2.4V9.15h5V2.68a2.41,2.41,0,0,0-2.4-2.4Z"/><path class="cls-5" d="M56.29,7H53.44V1.63A1.36,1.36,0,0,1,54.79.28h.15a1.36,1.36,0,0,1,1.35,1.35Z"/><rect class="cls-6" x="53.44" y="7.04" width="2.85" height="1.04"/><rect class="cls-7" x="52.92" y="7.56" width="3.9" height="4.11"/><path d="M56.29,8.08v3.06H53.44V8.08h2.85m1.05-1h-5v5.16h5V7Z"/><rect x="52.92" y="6.42" width="3.9" height="2.18"/><path class="cls-4" d="M56.29,7V8.08H53.44V7h2.85m1.05-1h-5V9.13h5V5.9Z"/></g></g></g></g></svg>