<svg xmlns="http://www.w3.org/2000/svg" viewBox="0 0 100 100"><defs><style>.cls-1{fill:blue;}.cls-2{fill:aqua;}.cls-3{fill:#fff;}.cls-4{fill:#f0f;}.cls-5{opacity:0.01;}.cls-6{fill:#1b1926;}</style></defs><title>charger-tier-1</title><g id="Layer_2" data-name="Layer 2"><g id="Towers_and_enemies_design" data-name="Towers and enemies design"><g id="charger-tier-1"><g id="charge-tier-1"><path class="cls-1" d="M50.07,2.1a1.35,1.35,0,0,1,1.35,1.36V8.87H48.58V3.46A1.35,1.35,0,0,1,49.93,2.1h.14m0-2.1h-.14a3.46,3.46,0,0,0-3.46,3.46V11h7.06V3.46A3.46,3.46,0,0,0,50.07,0Z"/><path class="cls-2" d="M50.07,1.05A1.35,1.35,0,0,1,51.42,2.4V7.81H48.58V2.4a1.35,1.35,0,0,1,1.35-1.35h.14m0-1h-.14a2.41,2.41,0,0,0-2.41,2.4V8.87h5V2.4A2.41,2.41,0,0,0,50.07,0Z"/><path class="cls-1" d="M51.42,6.76H48.58V1.35A1.35,1.35,0,0,1,49.93,0h.14a1.35,1.35,0,0,1,1.35,1.35Z"/><rect class="cls-3" x="48.58" y="6.76" width="2.85" height="1.04"/><rect class="cls-1" x="48.05" y="7.28" width="3.9" height="4.11"/><path class="cls-4" d="M51.42,7.8v3.06H48.58V7.8h2.84m1.06-1h-5v5.16h5V6.75Z"/><rect class="cls-4" x="48.05" y="6.15" width="3.9" height="2.18"/><path class="cls-2" d="M51.42,6.67V7.8H48.58V6.67h2.84m1.06-1h-5V8.85h5V5.62Z"/></g><g class="cls-5"><path class="cls-6" d="M50,1A49,49,0,1,1,1,50,49.05,49.05,0,0,1,50,1m0-1a50,50,0,1,0,50,50A50,50,0,0,0,50,0Z"/></g></g></g></g></svg>