<svg xmlns="http://www.w3.org/2000/svg" viewBox="0 0 100 16"><defs><style>.cls-1{fill:#f0f;}.cls-2{fill:red;}.cls-3{fill:#5e060d;}</style></defs><title>Breach</title><g id="Layer_2" data-name="Layer 2"><g id="Towers_and_enemies_design" data-name="Towers and enemies design"><g id="Breach"><path class="cls-1" d="M98.5,1.5v13H1.5V1.5h97M100,0H0V16H100V0Z"/><rect class="cls-2" x="0.75" y="0.75" width="3.67" height="14.5"/><path class="cls-1" d="M3.67,1.5v13H1.5V1.5H3.67M5.17,0H0V16H5.17V0Z"/><rect class="cls-2" x="5.92" y="0.75" width="3.67" height="14.5"/><path class="cls-1" d="M8.83,1.5v13H6.67V1.5H8.83M10.33,0H5.17V16h5.16V0Z"/><rect class="cls-2" x="90.42" y="0.75" width="3.67" height="14.5"/><path class="cls-1" d="M93.33,1.5v13H91.17V1.5h2.16M94.83,0H89.67V16h5.16V0Z"/><rect class="cls-2" x="95.58" y="0.75" width="3.67" height="14.5"/><path class="cls-1" d="M98.5,1.5v13H96.33V1.5H98.5M100,0H94.83V16H100V0Z"/><path class="cls-3" d="M34.33,9.9c0,1.35-1.07,1.89-2.7,1.89H28.31V3.89h3c1.68,0,2.76.54,2.76,1.83v.5A1.43,1.43,0,0,1,33,7.71,1.58,1.58,0,0,1,34.33,9.4ZM32.07,6.1c0-.49-.44-.58-1.08-.58h-.65V7.06H31c.65,0,1.09-.06,1.09-.55Zm.23,3c0-.56-.49-.65-1.07-.65h-.89v1.68h.9c.61,0,1.06-.12,1.06-.63Z"/><path class="cls-3" d="M41.77,7.09a1.77,1.77,0,0,1-1.49,1.79,19.66,19.66,0,0,1,1.62,2.91,15.28,15.28,0,0,1-2.14,0,19.84,19.84,0,0,0-1.51-2.7h-.57v2.7a13.75,13.75,0,0,1-2,0V3.89h2.78c2,0,3.34.54,3.34,2Zm-2-.7c0-.71-.61-.8-1.34-.8h-.72V7.43h.72c.73,0,1.34-.09,1.34-.79Z"/><path class="cls-3" d="M43.2,11.79V3.89h5.12a7.4,7.4,0,0,1,0,1.63H45.23V7h3a8.55,8.55,0,0,1,0,1.6h-3v1.55h3.09a7.31,7.31,0,0,1,0,1.62Z"/><path class="cls-3" d="M54.05,10.34H51.62l-.43,1.45a14.44,14.44,0,0,1-2.08,0l2.76-7.9a16,16,0,0,1,2,0l2.76,7.9a14.86,14.86,0,0,1-2.11,0ZM52.83,6.26l-.74,2.48h1.49Z"/><path class="cls-3" d="M57.18,5.93c0-1.65,1.33-2.19,3.34-2.19A11.64,11.64,0,0,1,62.68,4a7.31,7.31,0,0,1,0,1.62,11.82,11.82,0,0,0-1.81-.15c-.95,0-1.67,0-1.67.94v2.9c0,.9.72,1,1.67,1A10.23,10.23,0,0,0,62.71,10a8.43,8.43,0,0,1,.15,1.6,9.39,9.39,0,0,1-2.34.34c-2,0-3.34-.53-3.34-2.19Z"/><path class="cls-3" d="M68.54,8.66H66.18v3.13a13.75,13.75,0,0,1-2,0V3.89a17.18,17.18,0,0,1,2,0v3h2.36v-3a17.18,17.18,0,0,1,2,0v7.9a13.75,13.75,0,0,1-2,0Z"/><path class="cls-2" d="M33.33,9.9c0,1.35-1.07,1.89-2.7,1.89H27.31V3.89h3c1.68,0,2.76.54,2.76,1.83v.5A1.43,1.43,0,0,1,32,7.71,1.58,1.58,0,0,1,33.33,9.4ZM31.07,6.1c0-.49-.44-.58-1.08-.58h-.65V7.06H30c.65,0,1.09-.06,1.09-.55Zm.23,3c0-.56-.49-.65-1.07-.65h-.89v1.68h.9c.61,0,1.06-.12,1.06-.63Z"/><path class="cls-2" d="M40.77,7.09a1.77,1.77,0,0,1-1.49,1.79,19.66,19.66,0,0,1,1.62,2.91,15.28,15.28,0,0,1-2.14,0,19.84,19.84,0,0,0-1.51-2.7h-.57v2.7a13.75,13.75,0,0,1-2,0V3.89h2.78c2,0,3.34.54,3.34,2Zm-2-.7c0-.71-.61-.8-1.34-.8h-.72V7.43h.72c.73,0,1.34-.09,1.34-.79Z"/><path class="cls-2" d="M42.2,11.79V3.89h5.12a7.4,7.4,0,0,1,0,1.63H44.23V7h3a8.55,8.55,0,0,1,0,1.6h-3v1.55h3.09a7.31,7.31,0,0,1,0,1.62Z"/><path class="cls-2" d="M53.05,10.34H50.62l-.43,1.45a14.44,14.44,0,0,1-2.08,0l2.76-7.9a16,16,0,0,1,2,0l2.76,7.9a14.86,14.86,0,0,1-2.11,0ZM51.83,6.26l-.74,2.48h1.49Z"/><path class="cls-2" d="M56.18,5.93c0-1.65,1.33-2.19,3.34-2.19A11.64,11.64,0,0,1,61.68,4a7.31,7.31,0,0,1,0,1.62,11.82,11.82,0,0,0-1.81-.15c-.95,0-1.67,0-1.67.94v2.9c0,.9.72,1,1.67,1A10.23,10.23,0,0,0,61.71,10a8.43,8.43,0,0,1,.15,1.6,9.39,9.39,0,0,1-2.34.34c-2,0-3.34-.53-3.34-2.19Z"/><path class="cls-2" d="M67.54,8.66H65.18v3.13a13.75,13.75,0,0,1-2,0V3.89a17.18,17.18,0,0,1,2,0v3h2.36v-3a17.18,17.18,0,0,1,2,0v7.9a13.75,13.75,0,0,1-2,0Z"/></g></g></g></svg>