<svg xmlns="http://www.w3.org/2000/svg" viewBox="0 0 100 16"><defs><style>.cls-1{fill:#f0f;}.cls-2{fill:aqua;}.cls-3{fill:blue;}</style></defs><title>Nexus</title><g id="Layer_2" data-name="Layer 2"><g id="Towers_and_enemies_design" data-name="Towers and enemies design"><g id="Nexus"><path class="cls-1" d="M98.5,1.5v13H1.5V1.5h97M100,0H0V16H100V0Z"/><rect class="cls-2" x="0.75" y="0.75" width="3.67" height="14.5"/><path class="cls-1" d="M3.67,1.5v13H1.5V1.5H3.67M5.17,0H0V16H5.17V0Z"/><rect class="cls-2" x="5.92" y="0.75" width="3.67" height="14.5"/><path class="cls-1" d="M8.83,1.5v13H6.67V1.5H8.83M10.33,0H5.17V16h5.16V0Z"/><rect class="cls-2" x="90.42" y="0.75" width="3.67" height="14.5"/><path class="cls-1" d="M93.33,1.5v13H91.17V1.5h2.16M94.83,0H89.67V16h5.16V0Z"/><rect class="cls-2" x="95.58" y="0.75" width="3.67" height="14.5"/><path class="cls-1" d="M98.5,1.5v13H96.33V1.5H98.5M100,0H94.83V16H100V0Z"/><path class="cls-3" d="M35.13,7.29v4.5a9.84,9.84,0,0,1-2,0V3.89a19.82,19.82,0,0,1,2.18,0L37.64,8.5V3.89a17.18,17.18,0,0,1,2,0v7.9a16.45,16.45,0,0,1-2.22,0Z"/><path class="cls-3" d="M41.23,11.79V3.89h5.13a8.87,8.87,0,0,1,0,1.63h-3.1V7h3a7.13,7.13,0,0,1,0,1.6h-3v1.55h3.1a8.77,8.77,0,0,1,0,1.62Z"/><path class="cls-3" d="M50.65,9l-1.44,2.78a15,15,0,0,1-2.12,0l2.24-4.06L47.24,3.89a18.92,18.92,0,0,1,2.13,0l1.28,2.59L52,3.89a18.39,18.39,0,0,1,2.1,0L52,7.71l2.25,4.08a15.14,15.14,0,0,1-2.13,0Z"/><path class="cls-3" d="M59.56,3.89a16.82,16.82,0,0,1,2,0V9.78c0,1.6-1.3,2.15-3.25,2.15s-3.26-.55-3.26-2.15V3.89a17.18,17.18,0,0,1,2,0V9.4c0,.72.57.81,1.23.81s1.24-.09,1.24-.81Z"/><path class="cls-3" d="M68.34,10.06c0,1.35-1.12,1.87-3,1.87a19.41,19.41,0,0,1-2.53-.17,6.83,6.83,0,0,1,0-1.69,21.32,21.32,0,0,0,2.5.18c.54,0,1-.06,1-.5V9.4c0-.43-.09-.45-.86-.69l-1.61-.53c-.62-.19-1-.56-1-1.76V5.61c0-1.37,1.23-1.87,3-1.87A10.52,10.52,0,0,1,68.25,4a6.27,6.27,0,0,1,0,1.62,13,13,0,0,0-2.38-.22c-.6,0-1,0-1,.51v.28c0,.36.11.42.86.67l1.62.55c.64.22,1,.55,1,1.74Z"/><path class="cls-2" d="M34.13,7.29v4.5a9.84,9.84,0,0,1-2,0V3.89a19.82,19.82,0,0,1,2.18,0L36.64,8.5V3.89a17.18,17.18,0,0,1,2,0v7.9a16.45,16.45,0,0,1-2.22,0Z"/><path class="cls-2" d="M40.23,11.79V3.89h5.13a8.87,8.87,0,0,1,0,1.63h-3.1V7h3a7.13,7.13,0,0,1,0,1.6h-3v1.55h3.1a8.77,8.77,0,0,1,0,1.62Z"/><path class="cls-2" d="M49.65,9l-1.44,2.78a15,15,0,0,1-2.12,0l2.24-4.06L46.24,3.89a18.92,18.92,0,0,1,2.13,0l1.28,2.59L51,3.89a18.39,18.39,0,0,1,2.1,0L51,7.71l2.25,4.08a15.14,15.14,0,0,1-2.13,0Z"/><path class="cls-2" d="M58.56,3.89a16.82,16.82,0,0,1,2,0V9.78c0,1.6-1.3,2.15-3.25,2.15s-3.26-.55-3.26-2.15V3.89a17.18,17.18,0,0,1,2,0V9.4c0,.72.57.81,1.23.81s1.24-.09,1.24-.81Z"/><path class="cls-2" d="M67.34,10.06c0,1.35-1.12,1.87-3,1.87a19.41,19.41,0,0,1-2.53-.17,6.83,6.83,0,0,1,0-1.69,21.32,21.32,0,0,0,2.5.18c.54,0,1-.06,1-.5V9.4c0-.43-.09-.45-.86-.69l-1.61-.53c-.62-.19-1-.56-1-1.76V5.61c0-1.37,1.23-1.87,3-1.87A10.52,10.52,0,0,1,67.25,4a6.27,6.27,0,0,1,0,1.62,13,13,0,0,0-2.38-.22c-.6,0-1,0-1,.51v.28c0,.36.11.42.86.67l1.62.55c.64.22,1,.55,1,1.74Z"/></g></g></g></svg>