<svg xmlns="http://www.w3.org/2000/svg" viewBox="0 0 38.78 38.78"><defs><style>.cls-1{fill:#ff0;}.cls-2{fill:#f7931e;}</style></defs><title>nuclear-gold</title><g id="Layer_2" data-name="Layer 2"><g id="Game_Screen" data-name="Game Screen"><g id="nuclear-gold"><circle class="cls-1" cx="19.39" cy="19.39" r="18.64"/><path class="cls-2" d="M28.05,36.88c-17.16,7.61-33.76-9-26.15-26.15A17.36,17.36,0,0,1,10.73,1.9c17.16-7.61,33.76,9,26.15,26.15A17.44,17.44,0,0,1,28.05,36.88ZM21.22,1.59a17.89,17.89,0,1,0,16,16A17.91,17.91,0,0,0,21.22,1.59Z"/><circle class="cls-2" cx="19.39" cy="19.39" r="2.68"/><path class="cls-2" d="M26.75,32.69h0c-3.29,0-8-3.1-12.09-7.9C9,18,6.5,10.38,9.06,7.36a3.74,3.74,0,0,1,3-1.27h0c3.28,0,8,3.1,12.08,7.9h0c5.71,6.75,8.17,14.4,5.61,17.43A3.74,3.74,0,0,1,26.75,32.69ZM12,7.59a2.28,2.28,0,0,0-1.83.74c-1.81,2.14,0,8.87,5.61,15.49,3.73,4.41,8.12,7.37,10.94,7.37a2.28,2.28,0,0,0,1.83-.74c1.8-2.14,0-8.87-5.61-15.49C19.24,10.55,14.85,7.59,12,7.59Z"/><path class="cls-2" d="M12,32.69a3.74,3.74,0,0,1-3-1.27C6.5,28.39,9,20.74,14.66,14c4.06-4.8,8.8-7.9,12.09-7.9a3.74,3.74,0,0,1,3,1.27c2.56,3,.1,10.68-5.61,17.43h0C20.06,29.59,15.31,32.69,12,32.69ZM26.75,7.59c-2.82,0-7.21,3-10.94,7.37-5.59,6.62-7.42,13.35-5.61,15.49a2.28,2.28,0,0,0,1.83.74c2.82,0,7.21-3,10.94-7.37h0c5.59-6.62,7.41-13.35,5.61-15.49A2.28,2.28,0,0,0,26.75,7.59Z"/><path class="cls-2" d="M19.39,27.09c-8.16,0-14.55-3.38-14.55-7.7s6.39-7.7,14.55-7.7,14.55,3.38,14.55,7.7S27.55,27.09,19.39,27.09Zm0-13.9c-7.08,0-13,2.84-13,6.2s6,6.2,13.05,6.2,13-2.84,13-6.2S26.46,13.19,19.39,13.19Z"/></g></g></g></svg>