<svg xmlns="http://www.w3.org/2000/svg" viewBox="0 0 39.7 26.9"><defs><style>.cls-1{fill:#fbb03b;}</style></defs><title>sound-control</title><g id="Layer_2" data-name="Layer 2"><g id="Game_Screen" data-name="Game Screen"><g id="Sound_Control" data-name="Sound Control"><path class="cls-1" d="M17.36,26.9a1,1,0,0,1-.47-.12L5,20.49H1a1,1,0,0,1-1-1V7.4a1,1,0,0,1,1-1H5L16.89.12A1,1,0,0,1,18.36,1V25.9a1,1,0,0,1-1,1ZM2,18.49H5.27a1,1,0,0,1,.47.12l10.62,5.63V2.66L5.74,8.29a1.12,1.12,0,0,1-.47.11H2Z"/><path class="cls-1" d="M25.19,18.36a1,1,0,0,1-1-1V9.54a1,1,0,0,1,2,0v7.82A1,1,0,0,1,25.19,18.36Z"/><path class="cls-1" d="M31.59,21.21a1,1,0,0,1-1-1V6a1,1,0,0,1,2,0V20.21A1,1,0,0,1,31.59,21.21Z"/><path class="cls-1" d="M38.7,25.47a1,1,0,0,1-1-1V1a1,1,0,0,1,2,0V24.47A1,1,0,0,1,38.7,25.47Z"/></g></g></g></svg>