<svg xmlns="http://www.w3.org/2000/svg" viewBox="0 0 100 100"><defs><style>.cls-1{fill:#8fff3c;}.cls-2{fill:#0000f9;}.cls-3{fill:#3f062c;}.cls-4{fill:#da00f9;}.cls-5{fill:#ff0;}.cls-6{fill:#8fffff;}.cls-7{fill:#ffff3c;}.cls-8{fill:#a52b31;}.cls-9{fill:#f1f1f1;}.cls-10{fill:#da0100;}.cls-11{fill:red;}.cls-12{opacity:0.1;}.cls-13{fill:#1b1926;opacity:0.01;}</style></defs><title>double-toxic-carrier-frame-1</title><g id="Layer_2" data-name="Layer 2"><g id="Enemies"><g id="double-toxic-carrier-frame-1"><g id="double-toxic-carrier"><path class="cls-1" d="M21.77,24.05,17.32,19.6a1.57,1.57,0,0,1,2.22-2.21L24,21.84Z"/><path class="cls-2" d="M17.86,17.92a.81.81,0,0,1,1.14,0l3.92,3.92L21.77,23l-3.91-3.91a.81.81,0,0,1,0-1.15m-1.08-1.07a2.34,2.34,0,0,0,0,3.29l5,5,3.29-3.29-5-5a2.32,2.32,0,0,0-3.29,0Z"/><path class="cls-1" d="M76,21.84l4.45-4.45a1.57,1.57,0,0,1,2.22,2.21l-4.45,4.45Z"/><path class="cls-2" d="M82.15,17.92a.81.81,0,0,1,0,1.15L78.24,23l-1.15-1.14L81,17.92a.81.81,0,0,1,1.14,0m1.07-1.07a2.32,2.32,0,0,0-3.29,0l-5,5,3.29,3.29,5-5a2.32,2.32,0,0,0,0-3.29Z"/><path class="cls-3" d="M60.05,68.06,50,59.4,40,68.06H27.8L17.43,59.12V27.72A11.51,11.51,0,0,1,28.92,16.23H71.09A11.51,11.51,0,0,1,82.58,27.72v31.4L72.21,68.06Z"/><path class="cls-4" d="M71.09,17A10.75,10.75,0,0,1,81.82,27.72V58.78L71.93,67.3H60.33l-9.34-8-1-.85-1,.85-9.33,8H28.08l-9.89-8.52V27.72A10.75,10.75,0,0,1,28.92,17H71.09m0-1.51H28.92A12.25,12.25,0,0,0,16.67,27.72V59.47l10.84,9.35H40.24L50,60.4l9.77,8.42H72.5l10.83-9.35V27.72A12.24,12.24,0,0,0,71.09,15.48Z"/><polygon points="13.55 78.52 13.55 75.45 17.42 69.84 17.42 57.82 26.95 63.61 29.63 68.08 29.63 73.07 26.15 75.52 26.15 78.52 13.55 78.52"/><path class="cls-4" d="M18.18,59.17l8.22,5,2.47,4.13v4.38l-2.84,2-.64.46v2.63H14.3V75.69l3.61-5.22.27-.39V59.17m-1.51-2.7V69.6l-3.88,5.61v4.07H26.91V75.91l3.48-2.45V67.87L27.5,63.06,16.67,56.47Z"/><polygon class="cls-5" points="13.55 78.52 13.55 75.45 16.88 70.63 26.15 76.34 26.15 78.52 13.55 78.52"/><path d="M17.09,71.65l8.3,5.11v1H14.3V75.69l2.79-4m-.42-2.05-3.88,5.61v4.07H26.91V75.91L16.67,69.6Z"/><polygon class="cls-6" points="17.42 64.01 17.42 57.82 26.95 63.61 29.63 68.08 29.63 72.05 17.42 64.01"/><path d="M18.18,59.17l8.22,5,2.47,4.13v2.35l-10.69-7V59.17m-1.51-2.7v8l13.72,9V67.87L27.5,63.06,16.67,56.47Z"/><rect class="cls-1" x="23.8" y="23.77" width="20.16" height="35.87" rx="0.44"/><path d="M43.2,24.53V58.88H24.56V24.53H43.2M43.52,23H24.23A1.19,1.19,0,0,0,23,24.2v35a1.19,1.19,0,0,0,1.19,1.2H43.52a1.2,1.2,0,0,0,1.2-1.2v-35A1.19,1.19,0,0,0,43.52,23Z"/><rect x="23.04" y="47.11" width="21.68" height="1.52"/><rect x="23.04" y="34.78" width="21.68" height="1.52"/><circle class="cls-7" cx="33.88" cy="41.7" r="6.17"/><path d="M33.88,48.63A6.93,6.93,0,1,1,40.8,41.7,6.94,6.94,0,0,1,33.88,48.63Zm0-12.33a5.41,5.41,0,1,0,5.4,5.4A5.41,5.41,0,0,0,33.88,36.3Z"/><rect class="cls-8" x="23.8" y="52.46" width="20.16" height="4.85"/><path d="M43.2,53.21v3.33H24.56V53.21H43.2m1.52-1.51H23v6.36H44.72V51.7Z"/><rect class="cls-2" x="23.8" y="29.93" width="20.16" height="4.85"/><path d="M43.2,30.69V34H24.56V30.69H43.2m1.52-1.52H23v6.37H44.72V29.17Z"/><rect class="cls-9" x="44.98" y="29.43" width="5.34" height="2.87"/><path d="M49.56,30.19v1.35H45.74V30.19h3.82m1.52-1.52H44.22v4.39h6.86V28.67Z"/><rect class="cls-9" x="44.98" y="52.84" width="5.34" height="2.87"/><path d="M49.56,53.6V55H45.74V53.6h3.82m1.52-1.52H44.22v4.39h6.86V52.08Z"/><rect class="cls-9" x="17.42" y="29.43" width="5.34" height="2.87"/><path d="M22,30.19v1.35H18.18V30.19H22m1.52-1.52H16.67v4.39h6.86V28.67Z"/><rect class="cls-9" x="17.42" y="52.84" width="5.34" height="2.87"/><path d="M22,53.6V55H18.18V53.6H22m1.52-1.52H16.67v4.39h6.86V52.08Z"/><rect class="cls-10" x="49.35" y="75.97" width="4.85" height="2.55"/><path d="M53.44,76.73v1H50.11v-1h3.33M55,75.21H48.59v4.07H55V75.21Z"/><rect class="cls-10" x="13.55" y="75.97" width="4.85" height="2.55"/><path d="M17.64,76.73v1H14.3v-1h3.34m1.51-1.52H12.79v4.07h6.36V75.21Z"/><path class="cls-6" d="M50,82.72a1.58,1.58,0,0,1-1.57-1.57V80h3.14v1.11A1.57,1.57,0,0,1,50,82.72Z"/><path class="cls-2" d="M50.77,80.8v.35a.81.81,0,0,1-1.62,0V80.8h1.62m1.52-1.52H47.64v1.87A2.33,2.33,0,0,0,50,83.48h0a2.33,2.33,0,0,0,2.33-2.33V79.28Z"/><path class="cls-1" d="M45.84,82.72a1.57,1.57,0,0,1-1.57-1.57V80H47.4v1.11A1.57,1.57,0,0,1,45.84,82.72Z"/><path class="cls-2" d="M46.64,80.8v.35a.81.81,0,1,1-1.61,0V80.8h1.61m1.52-1.52H43.51v1.87a2.33,2.33,0,1,0,4.65,0V79.28Z"/><path class="cls-1" d="M21.91,82.72a1.58,1.58,0,0,1-1.57-1.57V80h3.14v1.11A1.57,1.57,0,0,1,21.91,82.72Z"/><path class="cls-2" d="M22.72,80.8v.35a.81.81,0,0,1-1.62,0V80.8h1.62m1.52-1.52H19.58v1.87a2.33,2.33,0,0,0,4.66,0V79.28Z"/><path class="cls-1" d="M17.78,82.72a1.57,1.57,0,0,1-1.56-1.57V80h3.13v1.11A1.57,1.57,0,0,1,17.78,82.72Z"/><path class="cls-2" d="M18.59,80.8v.35a.81.81,0,1,1-1.61,0V80.8h1.61m1.52-1.52H15.46v1.87a2.33,2.33,0,1,0,4.65,0V79.28Z"/><g id="Eyes"><path class="cls-5" d="M27.71,22.12a2,2,0,1,1,2-1.95A2,2,0,0,1,27.71,22.12Z"/><path d="M27.71,19a1.2,1.2,0,1,1-1.19,1.2A1.2,1.2,0,0,1,27.71,19m0-1.52a2.72,2.72,0,1,0,2.71,2.72,2.71,2.71,0,0,0-2.71-2.72Z"/><path class="cls-5" d="M40,22.12a2,2,0,1,1,2-1.95A2,2,0,0,1,40,22.12Z"/><path d="M40,19a1.2,1.2,0,1,1-1.19,1.2A1.2,1.2,0,0,1,40,19m0-1.52a2.72,2.72,0,1,0,2.71,2.72A2.72,2.72,0,0,0,40,17.45Z"/></g><polygon points="73.85 78.52 73.85 75.52 70.37 73.07 70.37 68.08 73.05 63.61 82.58 57.82 82.58 69.84 86.45 75.45 86.45 78.52 73.85 78.52"/><path class="cls-4" d="M81.82,59.17V70.08l.27.39,3.61,5.22v2.07H74.61V75.13L74,74.67l-2.84-2V68.29l2.47-4.13,8.22-5m1.51-2.7L72.5,63.06l-2.89,4.81v5.59l3.48,2.45v3.37H87.21V75.21L83.33,69.6V56.47Z"/><polygon class="cls-5" points="73.85 78.52 73.85 76.34 83.12 70.63 86.45 75.45 86.45 78.52 73.85 78.52"/><path d="M82.9,71.65l2.8,4v2.07H74.61v-1l8.29-5.11m.43-2.05L73.09,75.91v3.37H87.21V75.21L83.33,69.6Z"/><polygon class="cls-6" points="70.37 68.08 73.05 63.61 82.58 57.82 82.58 64.01 70.37 72.05 70.37 68.08"/><path d="M81.82,59.17V63.6l-10.69,7V68.29l2.47-4.13,8.22-5m1.51-2.7L72.5,63.06l-2.89,4.81v5.59l13.72-9v-8Z"/><polygon points="41.6 78.52 41.6 75.52 38.12 73.07 38.12 68.08 40.8 63.61 49.68 58.21 49.68 57.23 50.32 57.23 50.32 58.21 59.2 63.61 61.88 68.08 61.88 73.07 58.4 75.52 58.4 78.52 41.6 78.52"/><path class="cls-4" d="M50,58.9l.29.18,8.36,5.08,2.47,4.13v4.38l-2.83,2-.65.46v2.63H42.36V75.13l-.65-.46-2.83-2V68.29l2.47-4.13,8.36-5.08L50,58.9m1.08-2.43H48.92v1.31l-8.68,5.28-2.88,4.81v5.59l3.48,2.45v3.37H59.16V75.91l3.48-2.45V67.87l-2.88-4.81-8.68-5.28V56.47Z"/><polygon class="cls-5" points="41.6 78.52 41.6 76.34 47.85 72.49 49.32 70.36 50.68 70.36 52.15 72.49 58.4 76.34 58.4 78.52 41.6 78.52"/><path d="M50.29,71.12l1.15,1.67.18.26.27.17,5.75,3.54v1H42.36v-1l5.75-3.54.27-.17.18-.26,1.15-1.67h.58m.79-1.52H48.92l-1.61,2.32-6.47,4v3.37H59.16V75.91l-6.47-4L51.08,69.6Z"/><polygon class="cls-6" points="50 64.22 38.12 72.05 38.12 68.08 40.8 63.61 49.68 58.21 49.68 57.23 50.32 57.23 50.32 58.21 59.2 63.61 61.88 68.08 61.88 72.05 50 64.22"/><path d="M50,58.9l.29.18,8.36,5.08,2.47,4.13v2.35L50.83,63.86,50,63.31l-.83.55L38.88,70.64V68.29l2.47-4.13,8.36-5.08L50,58.9m1.08-2.43H48.92v1.31l-8.68,5.28-2.88,4.81v5.59L50,65.13l12.64,8.33V67.87l-2.88-4.81-8.68-5.28V56.47Z"/><rect class="cls-1" x="56.05" y="23.77" width="20.16" height="35.87" rx="0.44"/><path d="M75.45,24.53V58.88H56.81V24.53H75.45M75.78,23H56.49a1.19,1.19,0,0,0-1.2,1.19v35a1.2,1.2,0,0,0,1.2,1.2H75.78A1.19,1.19,0,0,0,77,59.2v-35A1.19,1.19,0,0,0,75.78,23Z"/><rect x="55.29" y="47.11" width="21.68" height="1.52"/><rect x="55.29" y="34.78" width="21.68" height="1.52"/><circle class="cls-7" cx="66.13" cy="41.7" r="6.17"/><path d="M66.13,48.63a6.93,6.93,0,1,1,6.93-6.93A6.93,6.93,0,0,1,66.13,48.63Zm0-12.33a5.41,5.41,0,1,0,5.41,5.4A5.41,5.41,0,0,0,66.13,36.3Z"/><rect class="cls-8" x="56.05" y="52.46" width="20.16" height="4.85"/><path d="M75.45,53.21v3.33H56.81V53.21H75.45M77,51.7H55.29v6.36H77V51.7Z"/><rect class="cls-2" x="56.05" y="29.93" width="20.16" height="4.85"/><path d="M75.45,30.69V34H56.81V30.69H75.45M77,29.17H55.29v6.37H77V29.17Z"/><rect class="cls-9" x="77.23" y="29.43" width="5.34" height="2.87"/><path d="M81.82,30.19v1.35H78V30.19h3.83m1.51-1.52H76.47v4.39h6.86V28.67Z"/><rect class="cls-9" x="77.23" y="52.84" width="5.34" height="2.87"/><path d="M81.82,53.6V55H78V53.6h3.83m1.51-1.52H76.47v4.39h6.86V52.08Z"/><rect class="cls-9" x="49.68" y="29.43" width="5.34" height="2.87"/><path d="M54.26,30.19v1.35H50.44V30.19h3.82m1.52-1.52H48.92v4.39h6.86V28.67Z"/><rect class="cls-9" x="49.68" y="52.84" width="5.34" height="2.87"/><path d="M54.26,53.6V55H50.44V53.6h3.82m1.52-1.52H48.92v4.39h6.86V52.08Z"/><rect class="cls-10" x="81.61" y="75.97" width="4.85" height="2.55"/><path d="M85.7,76.73v1H82.36v-1H85.7m1.51-1.52H80.85v4.07h6.36V75.21Z"/><rect class="cls-10" x="47.61" y="75.97" width="4.85" height="2.55"/><path d="M51.7,76.73v1H48.37v-1H51.7m1.52-1.52H46.86v4.07h6.36V75.21Z"/><path class="cls-1" d="M82.22,82.72a1.57,1.57,0,0,1-1.57-1.57V80h3.13v1.11A1.57,1.57,0,0,1,82.22,82.72Z"/><path class="cls-2" d="M83,80.8v.35a.81.81,0,1,1-1.61,0V80.8H83m1.52-1.52H79.89v1.87a2.33,2.33,0,1,0,4.65,0V79.28Z"/><path class="cls-1" d="M78.09,82.72a1.57,1.57,0,0,1-1.57-1.57V80h3.14v1.11A1.58,1.58,0,0,1,78.09,82.72Z"/><path class="cls-2" d="M78.9,80.8v.35a.81.81,0,0,1-1.62,0V80.8H78.9m1.52-1.52H75.76v1.87a2.33,2.33,0,0,0,4.66,0V79.28Z"/><path class="cls-1" d="M54.16,82.72a1.57,1.57,0,0,1-1.56-1.57V80h3.13v1.11A1.57,1.57,0,0,1,54.16,82.72Z"/><path class="cls-2" d="M55,80.8v.35a.81.81,0,1,1-1.61,0V80.8H55m1.52-1.52H51.84v1.87a2.33,2.33,0,1,0,4.65,0V79.28Z"/><path class="cls-1" d="M50,82.72a1.57,1.57,0,0,1-1.57-1.57V80h3.14v1.11A1.58,1.58,0,0,1,50,82.72Z"/><path class="cls-2" d="M50.85,80.8v.35a.81.81,0,0,1-1.62,0V80.8h1.62m1.51-1.52H47.71v1.87a2.33,2.33,0,1,0,4.65,0V79.28Z"/><g id="Eyes-2" data-name="Eyes"><circle class="cls-11" cx="59.97" cy="20.17" r="1.95"/><path d="M60,19a1.2,1.2,0,1,1-1.2,1.2A1.2,1.2,0,0,1,60,19m0-1.52a2.72,2.72,0,1,0,2.71,2.72A2.72,2.72,0,0,0,60,17.45Z"/><path class="cls-11" d="M72.3,22.12a2,2,0,1,1,2-1.95A2,2,0,0,1,72.3,22.12Z"/><path d="M72.3,19a1.2,1.2,0,1,1-1.2,1.2A1.2,1.2,0,0,1,72.3,19m0-1.52A2.72,2.72,0,1,0,75,20.17a2.71,2.71,0,0,0-2.71-2.72Z"/></g></g><g class="cls-12"><path class="cls-13" d="M50,1A49,49,0,1,1,1,50,49.05,49.05,0,0,1,50,1m0-1a50,50,0,1,0,50,50A50,50,0,0,0,50,0Z"/></g></g></g></g></svg>