<svg xmlns="http://www.w3.org/2000/svg" viewBox="0 0 100 100"><defs><style>.cls-1{fill:#ff3e3e;}.cls-2{fill:#da0100;}.cls-3{fill:#340d0d;}.cls-4{fill:#f70000;}.cls-5{fill:red;}.cls-6{fill:#4c0505;}.cls-7{fill:#a52b31;}.cls-8{fill:#890606;}.cls-9{fill:#f1f1f1;}.cls-10{fill:#c1272d;}.cls-11{opacity:0.1;}.cls-12{fill:#1b1926;opacity:0.01;}</style></defs><title>toxic-spreader-frame-1-hit</title><g id="Layer_2" data-name="Layer 2"><g id="Enemies"><g id="toxic-spreader-frame-1-hit"><g id="toxic-spreader"><path class="cls-1" d="M61.41,21.75l4.45-4.45a1.57,1.57,0,0,1,2.22,2.22L63.63,24Z"/><path class="cls-2" d="M67.54,17.83a.81.81,0,0,1,0,1.15l-3.91,3.91-1.15-1.14,3.92-3.92a.81.81,0,0,1,1.14,0m1.07-1.07a2.32,2.32,0,0,0-3.29,0l-5,5L63.63,25l5-5a2.32,2.32,0,0,0,0-3.29Z"/><path class="cls-1" d="M36.38,24l-4.45-4.45a1.57,1.57,0,0,1,2.22-2.22l4.45,4.45Z"/><path class="cls-2" d="M32.47,17.83a.81.81,0,0,1,1.14,0l3.92,3.92-1.15,1.14L32.47,19a.81.81,0,0,1,0-1.15m-1.08-1.07a2.34,2.34,0,0,0,0,3.29l5,5,3.29-3.29-5-5a2.32,2.32,0,0,0-3.29,0Z"/><path class="cls-3" d="M42.41,68,32,59V27.64A11.5,11.5,0,0,1,43.53,16.15H56.48A11.5,11.5,0,0,1,68,27.64V59L57.6,68Z"/><path class="cls-4" d="M56.48,16.91A10.74,10.74,0,0,1,67.21,27.64V58.69l-9.89,8.52H42.69L32.8,58.69v-31A10.74,10.74,0,0,1,43.53,16.91H56.48m0-1.52H43.53A12.25,12.25,0,0,0,31.28,27.64V59.38l10.84,9.35H57.89l10.83-9.35V27.64A12.24,12.24,0,0,0,56.48,15.39Z"/><polygon points="59.24 78.43 59.24 75.43 55.76 72.98 55.76 68 58.44 63.52 67.97 57.73 67.97 69.75 71.84 75.36 71.84 78.43 59.24 78.43"/><path class="cls-4" d="M67.21,59.08V70l.27.39,3.61,5.22v2.07H60V75l-.64-.45-2.84-2V68.21L59,64.07l8.22-5m1.51-2.7L57.89,63,55,67.79v5.58l3.48,2.46v3.36H72.6V75.13l-3.88-5.61V56.38Z"/><polygon class="cls-5" points="59.24 78.43 59.24 76.25 68.51 70.54 71.84 75.36 71.84 78.43 59.24 78.43"/><path d="M68.3,71.56l2.79,4v2.07H60v-1l8.3-5.11m.42-2L58.48,75.83v3.36H72.6V75.13l-3.88-5.61Z"/><polygon class="cls-5" points="55.76 68 58.44 63.52 67.97 57.73 67.97 63.92 55.76 71.96 55.76 68"/><path d="M67.21,59.08v4.43L56.52,70.56V68.21L59,64.07l8.22-5m1.51-2.7L57.89,63,55,67.79v5.58l13.72-9V56.38Z"/><polygon points="28.16 78.43 28.16 75.36 32.03 69.75 32.03 57.73 41.56 63.52 44.24 68 44.24 72.98 40.76 75.43 40.76 78.43 28.16 78.43"/><path class="cls-4" d="M32.79,59.08l8.22,5,2.47,4.14v4.38l-2.84,2L40,75v2.63H28.91V75.6l3.61-5.22.27-.39V59.08m-1.51-2.7V69.52L27.4,75.13v4.06H41.52V75.83L45,73.37V67.79L42.11,63,31.28,56.38Z"/><polygon class="cls-5" points="28.16 78.43 28.16 75.36 31.49 70.54 40.76 76.25 40.76 78.43 28.16 78.43"/><path d="M31.7,71.56,40,76.67v1H28.91V75.6l2.79-4m-.42-2L27.4,75.13v4.06H41.52V75.83L31.28,69.52Z"/><polygon class="cls-5" points="32.03 63.92 32.03 57.73 41.56 63.52 44.24 68 44.24 71.96 32.03 63.92"/><path d="M32.79,59.08l8.22,5,2.47,4.14v2.35L32.79,63.51V59.08m-1.51-2.7v7.95l13.72,9V67.79L42.11,63,31.28,56.38Z"/><rect class="cls-6" x="39.92" y="23.68" width="20.16" height="35.87" rx="0.44"/><path d="M59.33,24.44V58.79H40.68V24.44H59.33m.32-1.52H40.36a1.19,1.19,0,0,0-1.19,1.19v35a1.19,1.19,0,0,0,1.19,1.19H59.65a1.19,1.19,0,0,0,1.19-1.19v-35a1.19,1.19,0,0,0-1.19-1.19Z"/><rect x="39.17" y="47.02" width="21.68" height="1.52"/><circle class="cls-1" cx="50" cy="41.62" r="6.17"/><path d="M50,48.54a6.93,6.93,0,1,1,6.93-6.92A6.94,6.94,0,0,1,50,48.54Zm0-12.33a5.41,5.41,0,1,0,5.41,5.41A5.41,5.41,0,0,0,50,36.21Z"/><rect class="cls-7" x="39.92" y="52.37" width="20.16" height="4.85"/><path d="M59.33,53.13v3.33H40.68V53.13H59.33m1.51-1.52H39.17V58H60.84V51.61Z"/><rect class="cls-8" x="39.92" y="29.84" width="20.16" height="4.85"/><path d="M59.33,30.6v3.33H40.68V30.6H59.33m1.51-1.51H39.17v6.36H60.84V29.09Z"/><rect class="cls-2" x="39.92" y="24.69" width="20.16" height="4.85"/><path d="M59.33,25.45v3.33H40.68V25.45H59.33m1.51-1.52H39.17V30.3H60.84V23.93Z"/><rect class="cls-9" x="61.6" y="29.34" width="6.36" height="2.87"/><path d="M67.21,30.1v1.35H62.36V30.1h4.85m1.51-1.52H60.84V33h7.88V28.58Z"/><rect class="cls-9" x="61.6" y="52.75" width="6.36" height="2.87"/><path d="M67.21,53.51v1.36H62.36V53.51h4.85M68.72,52H60.84v4.39h7.88V52Z"/><rect class="cls-9" x="32.03" y="29.34" width="6.37" height="2.87"/><path d="M37.65,30.1v1.35H32.79V30.1h4.86m1.52-1.52H31.28V33h7.89V28.58Z"/><rect class="cls-9" x="32.03" y="52.75" width="6.37" height="2.87"/><path d="M37.65,53.51v1.36H32.79V53.51h4.86M39.17,52H31.28v4.39h7.89V52Z"/><rect class="cls-2" x="67" y="75.88" width="4.85" height="2.55"/><path d="M71.09,76.64v1H67.75v-1h3.34m1.51-1.51H66.24v4.06H72.6V75.13Z"/><rect class="cls-2" x="28.16" y="75.88" width="4.85" height="2.55"/><path d="M32.25,76.64v1H28.91v-1h3.34m1.51-1.51H27.4v4.06h6.36V75.13Z"/><path class="cls-1" d="M67.61,84.63A1.57,1.57,0,0,1,66,83.06V80h3.13v3.11A1.56,1.56,0,0,1,67.61,84.63Z"/><path class="cls-2" d="M68.41,80.71v2.35a.81.81,0,1,1-1.61,0V80.71h1.61m1.52-1.52H65.28v3.87a2.33,2.33,0,1,0,4.65,0V79.19Z"/><path class="cls-1" d="M63.48,84.63a1.57,1.57,0,0,1-1.57-1.57V80h3.14v3.11A1.57,1.57,0,0,1,63.48,84.63Z"/><path class="cls-2" d="M64.29,80.71v2.35a.81.81,0,0,1-1.62,0V80.71h1.62m1.52-1.52H61.15v3.87a2.33,2.33,0,0,0,2.33,2.33h0a2.33,2.33,0,0,0,2.33-2.33V79.19Z"/><path class="cls-1" d="M36.52,84.63A1.57,1.57,0,0,1,35,83.06V80h3.14v3.11A1.57,1.57,0,0,1,36.52,84.63Z"/><path class="cls-2" d="M37.33,80.71v2.35a.81.81,0,1,1-1.62,0V80.71h1.62m1.52-1.52H34.19v3.87a2.33,2.33,0,0,0,2.33,2.33h0a2.33,2.33,0,0,0,2.33-2.33V79.19Z"/><path class="cls-1" d="M32.39,84.63a1.56,1.56,0,0,1-1.56-1.57V80H34v3.11A1.57,1.57,0,0,1,32.39,84.63Z"/><path class="cls-2" d="M33.2,80.71v2.35a.81.81,0,1,1-1.61,0V80.71H33.2m1.52-1.52H30.07v3.87a2.33,2.33,0,1,0,4.65,0V79.19Z"/><rect class="cls-8" x="33.57" y="33.73" width="3.13" height="17.5"/><path d="M35.94,34.49v16H34.33v-16h1.61M37.46,33H32.81V52h4.65V33Z"/><rect class="cls-8" x="63.22" y="33.73" width="3.13" height="17.5"/><path d="M65.59,34.49v16H64v-16h1.61M67.11,33H62.46V52h4.65V33Z"/><path class="cls-10" d="M41.88,22a2,2,0,1,1,1.95-2A2,2,0,0,1,41.88,22Z"/><path d="M41.88,18.88a1.2,1.2,0,1,1-1.2,1.2,1.2,1.2,0,0,1,1.2-1.2m0-1.51a2.71,2.71,0,1,0,2.71,2.71,2.71,2.71,0,0,0-2.71-2.71Z"/><path class="cls-10" d="M58.13,22a2,2,0,1,1,2-2A2,2,0,0,1,58.13,22Z"/><path d="M58.13,18.88a1.2,1.2,0,1,1,0,2.39,1.2,1.2,0,0,1,0-2.39m0-1.51a2.71,2.71,0,1,0,2.71,2.71,2.71,2.71,0,0,0-2.71-2.71Z"/><path d="M26.26,47V41.73a4.34,4.34,0,0,1,4.34-4.34h1V47Z"/><path class="cls-4" d="M30.88,38.15v8.11H27V41.73a3.58,3.58,0,0,1,3.59-3.58h.28m1.51-1.52H30.6a5.1,5.1,0,0,0-5.1,5.1v6.05h6.89V36.63Z"/><path d="M68.36,47V37.39h1a4.34,4.34,0,0,1,4.34,4.34V47Z"/><path class="cls-4" d="M69.4,38.15A3.58,3.58,0,0,1,73,41.73v4.53H69.12V38.15h.28m0-1.52H67.61V47.78H74.5V41.73a5.1,5.1,0,0,0-5.1-5.1Z"/></g><g class="cls-11"><path class="cls-12" d="M50,1A49,49,0,1,1,1,50,49.05,49.05,0,0,1,50,1m0-1a50,50,0,1,0,50,50A50,50,0,0,0,50,0Z"/></g></g></g></g></svg>