<svg xmlns="http://www.w3.org/2000/svg" viewBox="0 0 100 100"><defs><style>.cls-1{fill:#8fffff;}.cls-2{fill:#0000f9;}.cls-3{fill:#370d3e;}.cls-4{fill:#da00f9;}.cls-5{fill:#8fff3c;}.cls-6{fill:#ffff3c;}.cls-7{fill:#a52b31;}.cls-8{fill:#f1f1f1;}.cls-9{fill:#da0100;}.cls-10{opacity:0.1;}.cls-11{fill:#1b1926;opacity:0.01;}</style></defs><title>toxic-carrier-frame-0</title><g id="Layer_2" data-name="Layer 2"><g id="Enemies"><g id="toxic-carrier-frame-0"><g id="toxic-carrier"><path class="cls-1" d="M62.21,23.14V16.85a1.57,1.57,0,1,1,3.14,0v6.29Z"/><path class="cls-2" d="M63.78,16a.81.81,0,0,1,.81.81v5.53H63V16.85a.81.81,0,0,1,.81-.81m0-1.52a2.32,2.32,0,0,0-2.32,2.33v7h4.65v-7a2.33,2.33,0,0,0-2.33-2.33Z"/><path class="cls-1" d="M34.66,23.14V16.85a1.57,1.57,0,1,1,3.13,0v6.29Z"/><path class="cls-2" d="M36.23,16a.81.81,0,0,1,.81.81v5.53H35.42V16.85a.81.81,0,0,1,.81-.81m0-1.52a2.33,2.33,0,0,0-2.33,2.33v7h4.65v-7a2.32,2.32,0,0,0-2.32-2.33Z"/><path class="cls-3" d="M43.92,67.1,33.56,58.17V26.77A11.5,11.5,0,0,1,45.05,15.28H55A11.5,11.5,0,0,1,66.45,26.77v31.4L56.09,67.1Z"/><path class="cls-4" d="M55,16A10.74,10.74,0,0,1,65.69,26.77V57.82L55.8,66.35H44.2l-9.88-8.53v-31A10.74,10.74,0,0,1,45.05,16H55m0-1.52H45.05A12.24,12.24,0,0,0,32.8,26.77V58.52l10.84,9.34H56.37l10.84-9.34V26.77A12.25,12.25,0,0,0,55,14.52Z"/><polygon points="57.72 77.56 57.72 74.57 54.24 72.11 54.24 67.13 56.92 62.66 66.45 56.86 66.45 68.89 70.33 74.49 70.33 77.56 57.72 77.56"/><path class="cls-4" d="M65.69,58.21V69.12l.27.39,3.61,5.22v2.08H58.48V74.17l-.64-.45-2.84-2V67.34l2.48-4.13,8.21-5m1.52-2.69L56.37,62.11l-2.89,4.81v5.59L57,75v3.36H71.09V74.26l-3.88-5.61V55.52Z"/><polygon class="cls-1" points="57.72 77.56 57.72 75.38 66.99 69.67 70.33 74.49 70.33 77.56 57.72 77.56"/><path d="M66.78,70.7l2.79,4v2.08H58.48v-1l8.3-5.11m.43-2L57,75v3.36H71.09V74.26l-3.88-5.61Z"/><polygon class="cls-1" points="54.24 67.13 56.92 62.66 66.45 56.86 66.45 63.05 54.24 71.1 54.24 67.13"/><path d="M65.69,58.21v4.43L55,69.69V67.34l2.48-4.13,8.21-5m1.52-2.69L56.37,62.11l-2.89,4.81v5.59l13.73-9.05V55.52Z"/><polygon points="29.67 77.56 29.67 74.49 33.55 68.89 33.55 56.86 43.08 62.66 45.76 67.13 45.76 72.11 42.28 74.56 42.28 77.56 29.67 77.56"/><path class="cls-4" d="M34.31,58.21l8.21,5L45,67.34v4.38l-2.84,2-.64.45v2.64H30.43V74.73L34,69.51l.27-.39V58.21m-1.52-2.69V68.65l-3.88,5.61v4.06H43V75l3.49-2.45V66.92l-2.89-4.81L32.79,55.52Z"/><polygon class="cls-1" points="29.67 77.56 29.67 74.49 33.01 69.67 42.28 75.38 42.28 77.56 29.67 77.56"/><path d="M33.22,70.7l8.3,5.11v1H30.43V74.73l2.79-4m-.43-2-3.88,5.61v4.06H43V75L32.79,68.65Z"/><polygon class="cls-1" points="33.55 63.05 33.55 56.86 43.08 62.66 45.76 67.13 45.76 71.1 33.55 63.05"/><path d="M34.31,58.21l8.21,5L45,67.34v2.35l-10.69-7V58.21m-1.52-2.69v7.94l13.73,9.05V66.92l-2.89-4.81L32.79,55.52Z"/><rect class="cls-5" x="39.92" y="22.81" width="20.16" height="35.87" rx="0.44"/><path d="M59.33,23.57V57.93H40.68V23.57H59.33m.32-1.52H40.36a1.19,1.19,0,0,0-1.19,1.2v35a1.19,1.19,0,0,0,1.19,1.19H59.65a1.19,1.19,0,0,0,1.19-1.19v-35a1.19,1.19,0,0,0-1.19-1.2Z"/><rect x="39.16" y="46.16" width="21.68" height="1.52"/><rect x="39.16" y="33.82" width="21.68" height="1.52"/><circle class="cls-6" cx="50" cy="40.75" r="6.17"/><path d="M50,47.67a6.93,6.93,0,1,1,6.93-6.92A6.93,6.93,0,0,1,50,47.67Zm0-12.33a5.41,5.41,0,1,0,5.41,5.41A5.41,5.41,0,0,0,50,35.34Z"/><rect class="cls-7" x="39.92" y="51.5" width="20.16" height="4.85"/><path d="M59.33,52.26v3.33H40.68V52.26H59.33m1.51-1.52H39.17v6.37H60.84V50.74Z"/><rect class="cls-2" x="39.92" y="28.98" width="20.16" height="4.85"/><path d="M59.33,29.74v3.33H40.68V29.74H59.33m1.51-1.52H39.17v6.36H60.84V28.22Z"/><rect class="cls-8" x="61.1" y="28.47" width="5.34" height="2.87"/><path d="M65.69,29.23v1.36H61.86V29.23h3.83m1.52-1.52H60.35V32.1h6.86V27.71Z"/><rect class="cls-8" x="61.1" y="51.88" width="5.34" height="2.87"/><path d="M65.69,52.64V54H61.86V52.64h3.83m1.52-1.51H60.35v4.39h6.86V51.13Z"/><rect class="cls-8" x="33.55" y="28.47" width="5.34" height="2.87"/><path d="M38.14,29.23v1.36H34.31V29.23h3.83m1.51-1.52H32.79V32.1h6.86V27.71Z"/><rect class="cls-8" x="33.55" y="51.88" width="5.34" height="2.87"/><path d="M38.14,52.64V54H34.31V52.64h3.83m1.51-1.51H32.79v4.39h6.86V51.13Z"/><rect class="cls-9" x="65.48" y="75.02" width="4.85" height="2.55"/><path d="M69.57,75.77v1H66.24v-1h3.33m1.52-1.51H64.72v4.06h6.37V74.26Z"/><rect class="cls-9" x="29.67" y="75.02" width="4.85" height="2.55"/><path d="M33.76,75.77v1H30.43v-1h3.33m1.52-1.51H28.91v4.06h6.37V74.26Z"/><path class="cls-1" d="M66.09,85.76a1.56,1.56,0,0,1-1.57-1.56V79.08h3.14V84.2A1.57,1.57,0,0,1,66.09,85.76Z"/><path class="cls-2" d="M66.9,79.84V84.2a.81.81,0,0,1-1.62,0V79.84H66.9m1.51-1.52H63.76V84.2a2.33,2.33,0,0,0,4.65,0V78.32Z"/><path class="cls-1" d="M62,85.76a1.57,1.57,0,0,1-1.57-1.56V79.08h3.14V84.2A1.56,1.56,0,0,1,62,85.76Z"/><path class="cls-2" d="M62.77,79.84V84.2a.81.81,0,0,1-1.62,0V79.84h1.62m1.52-1.52H59.64V84.2a2.33,2.33,0,0,0,4.65,0V78.32Z"/><path class="cls-1" d="M38,85.76a1.56,1.56,0,0,1-1.57-1.56V79.08h3.14V84.2A1.57,1.57,0,0,1,38,85.76Z"/><path class="cls-2" d="M38.85,79.84V84.2a.81.81,0,0,1-1.62,0V79.84h1.62m1.51-1.52H35.71V84.2A2.32,2.32,0,0,0,38,86.52h0a2.32,2.32,0,0,0,2.32-2.32V78.32Z"/><path class="cls-1" d="M33.91,85.76a1.57,1.57,0,0,1-1.57-1.56V79.08h3.14V84.2A1.56,1.56,0,0,1,33.91,85.76Z"/><path class="cls-2" d="M34.72,79.84V84.2a.81.81,0,0,1-1.62,0V79.84h1.62m1.52-1.52H31.59V84.2a2.33,2.33,0,0,0,4.65,0V78.32Z"/><g id="Eyes"><path class="cls-1" d="M43.84,21.16a1.95,1.95,0,1,1,1.95-1.95A1.95,1.95,0,0,1,43.84,21.16Z"/><path d="M43.84,18a1.2,1.2,0,0,1,0,2.39,1.2,1.2,0,1,1,0-2.39m0-1.52a2.71,2.71,0,1,0,2.71,2.71,2.71,2.71,0,0,0-2.71-2.71Z"/><path class="cls-1" d="M56.17,21.16a1.95,1.95,0,1,1,1.95-1.95A1.95,1.95,0,0,1,56.17,21.16Z"/><path d="M56.17,18A1.2,1.2,0,1,1,55,19.21,1.19,1.19,0,0,1,56.17,18m0-1.52a2.71,2.71,0,1,0,2.71,2.71,2.71,2.71,0,0,0-2.71-2.71Z"/></g></g><g class="cls-10"><path class="cls-11" d="M50,1A49,49,0,1,1,1,50,49.05,49.05,0,0,1,50,1m0-1a50,50,0,1,0,50,50A50,50,0,0,0,50,0Z"/></g></g></g></g></svg>